mtllib scene.mtl
o Object_2
usemtl Scene_-_Root
v 9.634702682495117 6.087773799896252 -52.17045593261719
v 9.918702125549316 2.603773832321178 -50.89445495605469
v 9.428702354431152 4.099773883819591 -48.082454681396484
v 9.712702751159668 7.175773620605479 -48.044456481933594
v 11.950702667236328 6.091773986816416 -45.15845489501953
v 13.342702865600586 9.073774337768565 -46.35645294189453
v 15.768702507019043 5.537773609161387 -45.27445602416992
v 16.278701782226562 6.181773662567148 -45.814453125
v 15.85470199584961 6.659773826599131 -45.92445373535156
v 15.830702781677246 7.077774047851573 -46.14845275878906
v 15.7547025680542 8.169774055480968 -46.724456787109375
v 13.068702697753906 9.975774765014659 -49.25245666503906
v 15.85670280456543 8.413774490356456 -47.77445602416992
v 15.416702270507812 9.557774543762218 -49.67045593261719
v 15.928703308105469 9.083774566650401 -49.05245590209961
v 13.9447021484375 9.651774406433116 -51.04645538330078
v 13.702702522277832 9.55177402496339 -51.236454010009766
v 13.04670238494873 9.177774429321301 -52.11445617675781
v 11.302701950073242 8.98177433013917 -51.5804557800293
v 13.100702285766602 7.491774082183849 -53.396453857421875
v 12.940702438354492 8.88577461242677 -52.292457580566406
v 13.1947021484375 6.655773639678967 -53.89445495605469
v 13.32070255279541 5.463773727417005 -54.02645492553711
v 12.376702308654785 3.0797739028930784 -53.70045471191406
v 13.370702743530273 5.397773742675794 -54.0544548034668
v 14.014702796936035 4.389773845672619 -53.836456298828125
v 14.878702163696289 3.3117740154266477 -53.59245300292969
v 13.846702575683594 0.7357737421989555 -51.314453125
v 15.110702514648438 2.987773895263684 -53.26045608520508
v 15.752702713012695 2.7117738723755 -52.91845703125
v 12.002702713012695 0.7477737069130053 -48.828453063964844
v 16.234703063964844 1.7697737216949567 -47.34845733642578
v 17.570701599121094 2.259773731231701 -51.076454162597656
v 17.776702880859375 3.1977739334106556 -50.018455505371094
v 17.62670135498047 3.901773929595958 -48.16845703125
v 17.71870231628418 2.919773817062389 -50.34445571899414
v 17.690702438354492 2.617773771286022 -50.81845474243164
v 16.69870376586914 5.5097737312317 -46.40845489501953
v 13.076702117919922 2.5877737998962504 -45.758453369140625
v 17.420703887939453 2.4237737655639764 -51.41045379638672
v 26.218704223632812 11.601774215698256 -62.48645782470703
v 27.40070343017578 10.54577445983888 -59.878456115722656
v 27.482704162597656 4.81177377700807 -61.224456787109375
v 27.750701904296875 7.719773769378675 -59.78645324707031
v 28.410701751708984 5.865773677825941 -58.66845703125
v 21.46670150756836 6.031773567199721 -64.07845306396484
v 22.882701873779297 1.569773674011244 -61.0904541015625
v 16.39670181274414 2.1637737751007213 -59.12245559692383
v 13.234703063964844 7.081773757934584 -60.116455078125
v 15.948702812194824 11.657774925231948 -62.262454986572266
v 20.95470428466797 12.841774940490737 -63.430458068847656
v 18.81070327758789 15.973774909973157 -58.61045837402344
v 13.758703231811523 12.89777469635011 -57.52445602416992
v 17.690702438354492 15.92177486419679 -53.496456146240234
v 12.802701950073242 10.217774391174329 -52.27245330810547
v 17.798702239990234 3.167773962020885 -50.02645492553711
v 18.830703735351562 2.3857738971710316 -49.836456298828125
v 21.938701629638672 0.9617737531662104 -52.56645584106445
v 22.35870361328125 -0.00022633672050371734 -55.198455810546875
v 24.526702880859375 1.6957737207412837 -53.250457763671875
v 21.714702606201172 0.9317737221717951 -52.43045425415039
v 21.530702590942383 0.9417737126350518 -52.23445510864258
v 20.912702560424805 1.1617736816406363 -51.154457092285156
v 19.878704071044922 1.6137737035751454 -49.74845504760742
v 17.088703155517578 0.7137737274170043 -54.28245544433594
v 25.612701416015625 2.0137739181518675 -53.55245590209961
v 26.840702056884766 1.5217736959457522 -55.93645477294922
v 27.276702880859375 2.7117738723755003 -53.512454986572266
v 27.696704864501953 3.2557737827301145 -54.63245391845703
v 27.718704223632812 3.3997738361358762 -54.02245330810547
v 27.76470184326172 3.309773921966565 -55.00645446777344
v 27.852703094482422 3.4237740039825564 -55.22845458984375
v 24.42870330810547 15.387774467468274 -55.076454162597656
v 23.614704132080078 16.189773559570327 -57.77245330810546
v 24.414703369140625 15.395774841308606 -55.06245422363281
v 25.076702117919922 15.037775039672864 -55.27445602416992
v 25.792701721191406 14.929774284362805 -57.77445602416992
v 19.972702026367188 15.495774269104016 -53.04845428466797
v 19.674701690673828 15.47577476501466 -52.80245590209961
v 18.78870391845703 15.217774391174329 -52.22245407104492
v 17.700702667236328 14.397774696350108 -50.534454345703125
v 27.26470184326172 12.563774108886733 -60.09245300292969
v 26.498703002929688 13.543774604797376 -59.27045440673828
v 25.738704681396484 14.36177444458009 -58.69045639038086
v 15.708702087402344 11.603774070739757 -50.050453186035156
v 16.26270294189453 12.549774169921886 -49.84445571899414
v 28.218704223632812 5.045773506164563 -57.542457580566406
v 15.802701950073242 6.8057737350463965 -45.628456115722656
v 15.252702713012695 12.301774978637706 -47.25245666503906
v 17.42870330810547 12.979774475097665 -43.52045440673828
v 19.924701690673828 8.455774307250985 -39.95645523071289
v 21.192703247070312 12.397774696350107 -39.94245529174805
v 23.208702087402344 16.149774551391612 -42.04445648193359
v 25.912704467773438 11.259774208068857 -39.604454040527344
v 29.506702423095703 12.755774497985849 -42.25245666503906
v 28.962703704833984 14.021774291992196 -42.95245361328125
v 26.802703857421875 17.097774505615245 -46.69645690917968
v 25.352703094482422 18.44777297973634 -47.92645645141601
v 26.982704162597656 16.369773864746104 -45.536453247070305
v 27.83670425415039 15.147774696350108 -44.04645538330078
v 20.080703735351562 17.58577346801759 -47.05445480346679
v 19.390703201293945 16.257774353027354 -51.976455688476555
v 25.590702056884766 17.01377296447755 -53.82045745849609
v 25.24470329284668 17.349773406982433 -52.21245574951171
v 25.65070343017578 17.655773162841808 -51.31445312499999
v 25.570701599121094 16.69777297973634 -54.15245819091796
v 26.622703552246094 0.461773663759243 -51.48445510864258
v 27.92670440673828 3.1857738494873167 -53.70445251464844
v 21.818702697753906 0.7497737407684443 -52.30845642089844
v 20.69870376586914 0.49177366495133495 -47.20045471191406
v 26.618701934814453 1.0597736835479834 -44.0544548034668
v 30.800704956054688 3.64777398109437 -44.534454345703125
v 30.898704528808594 3.613773822784434 -45.900455474853516
v 29.20470428466797 2.187773942947399 -50.65845489501953
v 29.128704071044922 2.085773944854748 -51.39845657348633
v 31.118701934814453 4.247773647308359 -44.57245635986328
v 31.102703094482422 4.293773651123057 -44.52245330810547
v 29.692703247070312 7.5117740631103604 -40.71845626831055
v 31.202701568603516 7.143774032592783 -42.88645553588867
v 31.248703002929688 7.721774101257334 -42.5904541015625
v 31.062702178955078 8.133774757385263 -42.45245361328125
v 30.2467041015625 10.257774353027353 -41.91645431518555
v 24.69670295715332 4.733773708343515 -40.13645553588867
v 20.710702896118164 2.8977739810943697 -42.396453857421875
v 25.44870376586914 15.999773979187024 -54.620452880859375
v 26.270702362060547 17.97577476501466 -48.744453430175774
v 26.570701599121094 17.99777412414552 -48.15045547485351
v 29.54470443725586 12.12577438354493 -42.078453063964844
v 29.976703643798828 10.68577480316163 -41.88845443725586
v 32.92870330810547 14.387774467468276 -64.42845153808594
v 39.7567024230957 15.601775169372573 -64.10245513916016
v 35.956703186035156 6.099773883819594 -63.53045654296875
v 29.33270263671875 7.757773876190199 -61.8924560546875
v 26.888702392578125 15.505774497985854 -60.172454833984375
v 27.44870376586914 20.101774215698256 -56.27245330810546
v 34.0587043762207 19.40577316284181 -62.70245361328124
v 32.3827018737793 23.053773880004897 -57.684455871582024
v 38.49470520019531 22.625774383544936 -59.53045654296874
v 43.17070388793945 20.15777397155763 -59.864456176757805
v 42.72670364379883 18.781774520874038 -60.76245498657226
v 42.57670593261719 16.053773880004897 -62.06445312499999
v 43.370704650878906 19.831773757934585 -59.87845611572265
v 42.850704193115234 15.555774688720717 -62.104454040527344
v 44.47470474243164 20.803773880004897 -56.07845306396484
v 44.46870422363281 21.595773696899425 -54.9904556274414
v 44.67070388793945 20.797773361206065 -55.658454895019524
v 43.90670394897461 20.623773574829116 -57.58645629882812
v 43.376705169677734 19.95577430725099 -59.6884536743164
v 48.21470642089844 16.525774002075206 -50.748455047607415
v 48.34070587158203 16.35377311706544 -50.60445404052734
v 48.3087043762207 16.341773986816417 -50.73445510864257
v 45.19870376586914 20.60777473449708 -54.16445541381835
v 48.354705810546875 16.237773895263683 -50.72845458984374
v 45.2467041015625 10.571774482727065 -60.742454528808594
v 44.562705993652344 9.35377407073976 -61.8044548034668
v 45.014705657958984 11.293774604797377 -61.258453369140625
v 45.75070571899414 10.243774414062512 -59.792457580566406
v 47.2627067565918 7.457773685455335 -55.61445617675781
v 46.97670364379883 9.329774856567395 -56.958457946777344
v 47.40870666503906 8.797774314880384 -55.87445831298828
v 47.19270324707031 6.489773750305188 -55.35645294189453
v 47.194705963134766 6.425773620605481 -55.32445526123047
v 46.008705139160156 10.047774314880384 -59.1944580078125
v 47.306705474853516 6.757773876190198 -55.23845672607422
v 47.8087043762207 9.687774658203137 -55.44245529174805
v 47.168704986572266 6.307773590087903 -55.258453369140625
v 44.05070495605469 2.9937739372253547 -57.012454986572266
v 39.918704986572266 0.025773663073790122 -53.90245819091797
v 47.052703857421875 6.2197737693786745 -55.188453674316406
v 43.07270431518555 2.267773866653454 -51.33445739746094
v 43.07070541381836 2.265773773193371 -51.32245635986328
v 43.626705169677734 2.9357738494873162 -52.61045455932617
v 44.35670471191406 3.6517739295959593 -53.262454986572266
v 40.208702087402344 1.659773707389842 -47.396453857421875
v 39.47470474243164 1.4777736663818464 -46.50245666503906
v 40.216705322265625 1.7897737026214704 -46.84245300292969
v 33.70070266723633 -0.000226336720504856 -50.070457458496094
v 33.12470245361328 1.0677736997604497 -57.41645812988281
v 29.584701538085938 1.4557737112045401 -51.25245666503906
v 28.296703338623047 19.78377342224122 -46.540454864501946
v 30.828704833984375 23.33577346801759 -50.46845626831054
v 34.96470260620117 21.433774948120128 -43.84245300292968
v 37.65270233154297 24.287775039672862 -48.848457336425774
v 44.440704345703125 19.78777313232423 -46.454456329345696
v 40.02470397949219 16.79177474975587 -41.434455871582024
v 45.07670593261719 17.72377395629884 -45.454456329345696
v 42.8087043762207 16.209774017333995 -42.89245605468749
v 47.850704193115234 16.785774230957042 -50.08245468139648
v 48.21470642089844 16.317773818969737 -50.3024559020996
v 45.25670623779297 18.001773834228526 -46.13445281982421
v 46.302703857421875 17.751773834228526 -47.99245452880859
v 47.81470489501953 16.817773818969737 -50.0424575805664
v 48.32670593261719 16.093772888183604 -50.46245574951171
v 38.4447021484375 7.17777395248414 -41.496456146240234
v 36.930702209472656 6.337773799896249 -41.32045364379883
v 38.414703369140625 6.225773811340342 -42.04245376586914
v 40.094703674316406 2.0117738246917827 -46.314453125
v 39.07670211791992 3.09377384185792 -44.96845626831055
v 38.21870422363281 4.539773941040049 -43.38445281982422
v 31.658702850341797 3.909773826599131 -44.306453704833984
v 30.620704650878906 11.259774208068857 -41.082454681396484
v 32.29670333862305 16.47377395629884 -41.062454223632805
v 37.052703857421875 13.145774841308603 -39.794456481933594
v 39.17670440673828 12.119774818420419 -40.54645538330078
v 39.272705078125 13.111774444580087 -40.70045471191406
v 39.396705627441406 13.317774772644052 -40.77445602416992
v 41.06270217895508 14.791774749755868 -41.6264533996582
v 38.36870193481445 8.007774353027353 -41.288455963134766
v 38.24070358276367 9.005774497985849 -41.03045654296875
v 42.0847053527832 15.839775085449228 -42.41045379638672
v 42.99070358276367 22.97177505493165 -50.44445419311523
v 37.94670486450195 24.663774490356456 -54.39445495605468
v 39.04070281982422 1.3457736968994272 -58.75445556640625
v 41.27470397949219 6.389773845672622 -62.560455322265625
v 48.35270690917969 15.861774444580089 -50.71045684814453
v 47.832706451416016 16.805774688720714 -50.07645416259765
v 47.45670700073242 17.381772994995128 -50.82645416259765
v 45.664703369140625 19.69577407836915 -52.32845306396484
v 45.54470443725586 19.893774032592784 -52.63045501708984
v 45.232704162597656 20.509773254394542 -53.890457153320305
v 45.008705139160156 11.30177497863771 -61.262454986572266
v 43.20270538330078 14.319774627685561 -62.03645324707031
v 64.83270263671875 9.945774078369153 -59.1944580078125
v 68.07870483398438 6.393774032592786 -54.48245620727539
v 66.14270782470703 3.289773941040052 -58.72245788574219
v 62.47470474243164 7.989773750305189 -61.078453063964844
v 60.47270584106445 9.64777469635011 -59.05845642089844
v 60.510704040527344 9.689774513244641 -59.01445770263672
v 60.45270538330078 10.139774322509778 -58.518455505371094
v 60.39070510864258 10.493774414062512 -58.12645721435547
v 59.81470489501953 7.565773963928236 -59.792457580566406
v 60.46470642089844 9.539774894714368 -59.11045837402344
v 59.69670486450195 5.445773601531996 -59.858455657958984
v 60.57270431518555 3.553773880004896 -60.404457092285156
v 59.358707427978516 4.885773658752455 -59.72645568847656
v 59.80070495605469 5.663773536682142 -59.896453857421875
v 59.832706451416016 5.8337736129760875 -59.90245819091797
v 59.88470458984375 6.447773933410658 -59.8924560546875
v 59.05470657348633 3.2597739696502814 -58.67045593261719
v 59.61270523071289 2.0597739219665656 -57.02645492553711
v 59.45670700073242 2.467773914337171 -57.61445617675781
v 61.22870635986328 0.749773740768445 -56.050453186035156
v 59.3347053527832 1.925773739814771 -56.56845474243164
v 59.6107063293457 2.305773735046399 -55.130455017089844
v 59.41070556640625 2.2257738113403445 -55.688453674316406
v 60.514705657958984 2.9697737693786737 -52.258453369140625
v 60.482704162597656 2.689773797988903 -52.93045425415039
v 60.39070510864258 3.387773990631115 -51.52845764160156
v 61.41270446777344 2.9657738208770863 -50.878456115722656
v 60.75070571899414 5.021773815155041 -50.52645492553711
v 60.77070617675781 5.061773777008068 -50.52645492553711
v 61.18070602416992 6.435773849487316 -50.47845458984375
v 61.14470672607422 7.273773670196545 -50.38645553588867
v 65.60070037841797 7.715774059295666 -51.31645584106445
v 61.604705810546875 10.44377422332765 -52.73245620727539
v 61.70470428466797 9.957774162292493 -52.396453857421875
v 61.370704650878906 10.743774414062512 -52.91645431518555
v 61.566707611083984 11.281774520874036 -53.332454681396484
v 61.36470413208008 7.577774047851574 -50.63645553588867
v 61.194705963134766 11.031774520874036 -53.358455657958984
v 61.200706481933594 11.177774429321301 -54.060455322265625
v 65.8987045288086 11.023774147033704 -55.870452880859375
v 65.1987075805664 1.9837737083435176 -52.78645324707031
v 61.226707458496094 11.161774635314954 -54.128456115722656
v 48.620704650878906 0.541773736476909 -48.578453063964844
v 48.71470642089844 4.003773689270031 -52.128456115722656
v 48.760704040527344 3.9277739524841424 -52.02445602416992
v 49.12870407104492 3.5577738285064813 -51.438453674316406
v 50.5327033996582 3.057773828506481 -50.1524543762207
v 44.562705993652344 2.323773860931408 -52.6424560546875
v 47.396705627441406 6.201773643493665 -55.258453369140625
v 47.38470458984375 5.779773712158216 -54.80845642089844
v 48.30470657348633 4.659773826599133 -53.07245635986328
v 47.38270568847656 6.39577388763429 -55.352455139160156
v 49.062705993652344 15.365775108337413 -50.6524543762207
v 50.02870559692383 14.537775039672862 -50.75045394897461
v 50.54670715332031 13.523774147033702 -51.466453552246094
v 51.694705963134766 13.195775032043468 -50.82245635986328
v 50.6107063293457 13.221775054931651 -51.76045608520508
v 51.81870651245117 15.983775138854991 -47.470455169677734
v 54.61670684814453 10.249774932861339 -46.95045471191406
v 54.306705474853516 10.399774551391612 -47.53645324707031
v 53.20870590209961 12.04177474975587 -48.406455993652344
v 52.354705810546875 12.81577491760255 -49.63645553588867
v 54.36470413208008 10.219774246215831 -47.44045639038086
v 54.44870376586914 9.89177417755128 -47.3044548034668
v 54.20470428466797 8.711774826049815 -46.794456481933594
v 52.68070602416992 2.9737739562988383 -46.14845275878906
v 53.92670440673828 7.7377738952636825 -46.79045486450195
v 53.13470458984375 5.373773574829112 -47.42045593261719
v 52.56470489501953 3.955773830413829 -48.306453704833984
v 52.15870666503906 4.80177354812623 -41.28245544433594
v 53.470706939697266 12.167774200439462 -42.73245620727539
v 50.1107063293457 8.925774574279794 -38.3924560546875
v 45.482704162597656 3.2537739276886075 -39.08845520019531
v 47.6107063293457 0.6997737288475131 -42.556453704833984
v 43.17870330810547 0.03377366438509035 -45.09245300292969
v 38.824703216552734 3.995774030685434 -42.06645584106445
v 38.738704681396484 8.441774368286142 -40.108455657958984
v 44.7827033996582 8.347774505615243 -37.22645568847656
v 39.37870407104492 13.189774513244638 -40.564453125
v 43.530704498291016 15.577775001525888 -40.37245559692383
v 45.966705322265625 18.231773376464854 -46.204456329345696
v 50.014705657958984 15.72177505493165 -41.99445343017578
v 50.8087043762207 3.0797739028930775 -49.70845413208008
v 51.64470672607422 3.4177739620208847 -48.88445281982422
v 55.14470672607422 15.389774322509778 -56.1944580078125
v 52.90670394897461 12.71777439117433 -62.176456451416016
v 51.90470504760742 18.04377365112306 -63.32045745849609
v 48.146705627441406 13.61777496337892 -64.42845153808594
v 49.27670669555664 10.16377449035646 -61.97845458984375
v 43.80070495605469 18.09777450561525 -63.10245513916015
v 47.7467041015625 19.00377464294435 -64.0704574584961
v 46.07670593261719 21.583774566650405 -60.33045578002929
v 45.21470642089844 21.65977478027345 -56.2924575805664
v 50.940704345703125 13.385774612426768 -51.76445388793945
v 48.034706115722656 9.179774284362805 -57.1424560546875
v 48.26670455932617 9.273774147033704 -57.70245361328125
v 49.04670333862305 9.511774063110364 -59.208457946777344
v 51.07670593261719 10.209774017333997 -59.65845489501953
v 54.850704193115234 14.953774452209485 -55.77845764160156
v 54.86470413208008 14.935774803161634 -55.99845504760742
v 54.81670379638672 14.7717742919922 -56.404457092285156
v 52.9607048034668 14.583774566650403 -52.71845626831055
v 52.338706970214844 16.599773406982433 -51.37845611572265
v 52.82270431518555 14.459774971008313 -52.512454986572266
v 54.21470642089844 14.895774841308606 -54.73845672607422
v 51.54670715332031 20.295774459838878 -54.07845306396484
v 53.5487060546875 19.643774032592788 -59.65645599365234
v 49.86870574951172 21.7717742919922 -59.69445800781249
v 48.398704528808594 18.53777313232423 -50.83645629882812
v 51.91070556640625 14.05777454376222 -52.102455139160156
v 48.832706451416016 9.511774063110364 -59.05645751953125
v 48.84870529174805 9.513774871826184 -59.076454162597656
v 48.85870361328125 9.515774726867688 -59.08845520019531
v 48.95470428466797 9.515774726867688 -59.156455993652344
v 51.190704345703125 10.281774520874036 -59.650455474853516
v 52.690704345703125 11.61777496337892 -60.288455963134766
v 54.18670654296875 14.037775039672864 -58.14445495605469
v 52.86470413208008 11.973774909973159 -60.25245666503906
v 53.07270431518555 12.347774505615249 -60.06845474243164
v 52.56670379638672 8.845774650573745 -61.70245361328125
v 56.76670455932617 9.59177398681642 -61.50245666503906
v 54.428707122802734 3.7497739791870255 -61.150455474853516
v 50.35670471191406 4.769773960113539 -60.1424560546875
v 53.2627067565918 11.931774139404311 -60.64045715332031
v 55.99070739746094 13.911774635314954 -58.69045639038086
v 58.86670684814453 12.395774841308606 -58.89445495605469
v 59.66470718383789 13.277774810791028 -55.89845275878906
v 59.72270584106445 5.749773979187025 -60.08845520019531
v 59.40670394897461 1.8417737483978398 -57.14045715332031
v 56.86670684814453 0.015773663297307835 -55.23045349121094
v 60.33070755004883 2.4757738113403436 -52.39445495605469
v 56.59270477294922 0.9077737331390493 -50.68045425415039
v 53.04270553588867 -0.0022263368591548816 -52.874454498291016
v 52.68870544433594 0.6557736992836126 -57.39045715332031
v 50.5127067565918 0.8957737088203549 -53.60045623779297
v 49.25670623779297 2.0917737483978396 -55.84645462036133
v 47.898704528808594 4.711773872375501 -56.86845397949219
v 47.440704345703125 8.125774383544934 -57.26045608520508
v 53.82070541381836 13.179774284362804 -49.044456481933594
v 55.47270584106445 14.93377494812013 -52.12245559692383
v 59.646705627441406 12.16577434539796 -50.650455474853516
v 56.93270492553711 10.32577419281007 -47.56245422363281
v 60.440704345703125 9.591773986816417 -49.400455474853516
v 59.09270477294922 6.153773784637462 -47.966453552246094
v 59.65670394897461 3.547773838043224 -49.746456146240234
v 55.02870559692383 3.895773887634288 -47.492454528808594
v 51.786705017089844 2.4037737846374623 -49.328453063964844
v 55.10270690917969 8.083774566650401 -46.5544548034668
v 58.75470733642578 14.12377452850343 -53.104454040527344
v 55.652706146240234 15.165774345397962 -55.53245544433594
v 56.32470703125 0.8277737498283515 -58.21245574951172
v 57.700706481933594 3.927773952484144 -60.55245590209961
v 52.86470413208008 11.973774909973159 -60.25245666503906
v 54.18670654296875 14.037775039672864 -58.14445495605469
v 48.832706451416016 9.511774063110364 -59.05645751953125
v 48.832706451416016 9.511774063110364 -59.05645751953125
v 52.82270431518555 14.459774971008313 -52.512454986572266
v 52.9607048034668 14.583774566650403 -52.71845626831055
v 54.81670379638672 14.7717742919922 -56.404457092285156
v 54.86470413208008 14.935774803161634 -55.99845504760742
v 54.850704193115234 14.953774452209485 -55.77845764160156
v 51.07670593261719 10.209774017333997 -59.65845489501953
v 49.04670333862305 9.511774063110364 -59.208457946777344
v 48.034706115722656 9.179774284362805 -57.1424560546875
v 51.64470672607422 3.4177739620208847 -48.88445281982422
v 50.940704345703125 13.385774612426768 -51.76445388793945
v 53.13470458984375 5.373773574829112 -47.42045593261719
v 53.92670440673828 7.7377738952636825 -46.79045486450195
v 54.306705474853516 10.399774551391612 -47.53645324707031
v 50.6107063293457 13.221775054931651 -51.76045608520508
v 50.6107063293457 13.221775054931651 -51.76045608520508
v 49.062705993652344 15.365775108337413 -50.6524543762207
v 50.5327033996582 3.057773828506481 -50.1524543762207
v 48.760704040527344 3.9277739524841424 -52.02445602416992
v 61.194705963134766 11.031774520874036 -53.358455657958984
v 61.566707611083984 11.281774520874036 -53.332454681396484
v 61.370704650878906 10.743774414062512 -52.91645431518555
v 61.70470428466797 9.957774162292493 -52.396453857421875
v 61.604705810546875 10.44377422332765 -52.73245620727539
v 60.482704162597656 2.689773797988903 -52.93045425415039
v 48.85870361328125 9.515774726867688 -59.08845520019531
v 60.514705657958984 2.9697737693786737 -52.258453369140625
v 59.41070556640625 2.2257738113403445 -55.688453674316406
v 59.6107063293457 2.305773735046399 -55.130455017089844
v 59.45670700073242 2.467773914337171 -57.61445617675781
v 59.61270523071289 2.0597739219665656 -57.02645492553711
v 59.05470657348633 3.2597739696502814 -58.67045593261719
v 48.84870529174805 9.513774871826184 -59.076454162597656
v 59.88470458984375 6.447773933410658 -59.8924560546875
v 59.832706451416016 5.8337736129760875 -59.90245819091797
v 59.80070495605469 5.663773536682142 -59.896453857421875
v 62.47470474243164 7.989773750305189 -61.078453063964844
v 48.95470428466797 9.515774726867688 -59.156455993652344
v 43.20270538330078 14.319774627685561 -62.03645324707031
v 45.232704162597656 20.509773254394542 -53.890457153320305
v 45.232704162597656 20.509773254394542 -53.890457153320305
v 45.54470443725586 19.893774032592784 -52.63045501708984
v 47.45670700073242 17.381772994995128 -50.82645416259765
v 47.832706451416016 16.805774688720714 -50.07645416259765
v 48.35270690917969 15.861774444580089 -50.71045684814453
v 48.35270690917969 15.861774444580089 -50.71045684814453
v 59.358707427978516 4.885773658752455 -59.72645568847656
v 42.0847053527832 15.839775085449228 -42.41045379638672
v 38.36870193481445 8.007774353027353 -41.288455963134766
v 41.06270217895508 14.791774749755868 -41.6264533996582
v 39.272705078125 13.111774444580087 -40.70045471191406
v 54.21470642089844 14.895774841308606 -54.73845672607422
v 26.802703857421875 17.097774505615245 -46.69645690917968
v 61.200706481933594 11.177774429321301 -54.060455322265625
v 61.36470413208008 7.577774047851574 -50.63645553588867
v 49.12870407104492 3.5577738285064813 -51.438453674316406
v 29.506702423095703 12.755774497985849 -42.25245666503906
v 42.850704193115234 15.555774688720717 -62.104454040527344
v 39.396705627441406 13.317774772644052 -40.77445602416992
v 48.3087043762207 16.341773986816417 -50.73445510864257
v 13.04670238494873 9.177774429321301 -52.11445617675781
v 53.07270431518555 12.347774505615249 -60.06845474243164
v 68.07870483398438 6.393774032592786 -54.48245620727539
v 30.2467041015625 10.257774353027353 -41.91645431518555
v 15.708702087402344 11.603774070739757 -50.050453186035156
v 47.40870666503906 8.797774314880384 -55.87445831298828
v 45.664703369140625 19.69577407836915 -52.32845306396484
v 45.664703369140625 19.69577407836915 -52.32845306396484
v 25.792701721191406 14.929774284362805 -57.77445602416992
v 50.54670715332031 13.523774147033702 -51.466453552246094
v 48.26670455932617 9.273774147033704 -57.70245361328125
v 27.852703094482422 3.4237740039825564 -55.22845458984375
v 40.094703674316406 2.0117738246917827 -46.314453125
v 48.71470642089844 4.003773689270031 -52.128456115722656
v 38.414703369140625 6.225773811340342 -42.04245376586914
v 24.526702880859375 1.6957737207412837 -53.250457763671875
v 27.92670440673828 3.1857738494873167 -53.70445251464844
v 24.414703369140625 15.395774841308606 -55.06245422363281
v 47.38270568847656 6.39577388763429 -55.352455139160156
v 47.38270568847656 6.39577388763429 -55.352455139160156
v 21.714702606201172 0.9317737221717951 -52.43045425415039
v 64.83270263671875 9.945774078369153 -59.1944580078125
v 12.940702438354492 8.88577461242677 -52.292457580566406
v 38.4447021484375 7.17777395248414 -41.496456146240234
v 47.38470458984375 5.779773712158216 -54.80845642089844
v 17.62670135498047 3.901773929595958 -48.16845703125
v 60.39070510864258 3.387773990631115 -51.52845764160156
v 52.354705810546875 12.81577491760255 -49.63645553588867
v 47.81470489501953 16.817773818969737 -50.0424575805664
v 38.21870422363281 4.539773941040049 -43.38445281982422
v 50.02870559692383 14.537775039672862 -50.75045394897461
v 15.830702781677246 7.077774047851573 -46.14845275878906
v 21.938701629638672 0.9617737531662104 -52.56645584106445
v 13.32070255279541 5.463773727417005 -54.02645492553711
v 15.7547025680542 8.169774055480968 -46.724456787109375
v 51.190704345703125 10.281774520874036 -59.650455474853516
v 26.982704162597656 16.369773864746104 -45.536453247070305
v 52.690704345703125 11.61777496337892 -60.288455963134766
v 65.8987045288086 11.023774147033704 -55.870452880859375
v 65.8987045288086 11.023774147033704 -55.870452880859375
v 27.26470184326172 12.563774108886733 -60.09245300292969
v 27.26470184326172 12.563774108886733 -60.09245300292969
v 44.35670471191406 3.6517739295959593 -53.262454986572266
v 46.302703857421875 17.751773834228526 -47.99245452880859
v 13.1947021484375 6.655773639678967 -53.89445495605469
v 53.5487060546875 19.643774032592788 -59.65645599365234
v 47.194705963134766 6.425773620605481 -55.32445526123047
v 51.91070556640625 14.05777454376222 -52.102455139160156
v 59.69670486450195 5.445773601531996 -59.858455657958984
v 18.78870391845703 15.217774391174329 -52.22245407104492
v 15.752702713012695 2.7117738723755 -52.91845703125
v 39.17670440673828 12.119774818420419 -40.54645538330078
v 13.702702522277832 9.55177402496339 -51.236454010009766
v 30.898704528808594 3.613773822784434 -45.900455474853516
v 14.014702796936035 4.389773845672619 -53.836456298828125
v 60.39070510864258 10.493774414062512 -58.12645721435547
v 28.410701751708984 5.865773677825941 -58.66845703125
v 60.45270538330078 10.139774322509778 -58.518455505371094
v 26.498703002929688 13.543774604797376 -59.27045440673828
v 27.718704223632812 3.3997738361358762 -54.02245330810547
v 27.718704223632812 3.3997738361358762 -54.02245330810547
v 15.928703308105469 9.083774566650401 -49.05245590209961
v 15.928703308105469 9.083774566650401 -49.05245590209961
v 19.674701690673828 15.47577476501466 -52.80245590209961
v 28.962703704833984 14.021774291992196 -42.95245361328125
v 43.07070541381836 2.265773773193371 -51.32245635986328
v 24.42870330810547 15.387774467468274 -55.076454162597656
v 25.738704681396484 14.36177444458009 -58.69045639038086
v 25.738704681396484 14.36177444458009 -58.69045639038086
v 13.370702743530273 5.397773742675794 -54.0544548034668
v 15.416702270507812 9.557774543762218 -49.67045593261719
v 17.71870231628418 2.919773817062389 -50.34445571899414
v 17.420703887939453 2.4237737655639764 -51.41045379638672
v 17.420703887939453 2.4237737655639764 -51.41045379638672
v 47.8087043762207 9.687774658203137 -55.44245529174805
v 47.8087043762207 9.687774658203137 -55.44245529174805
v 27.696704864501953 3.2557737827301145 -54.63245391845703
v 54.36470413208008 10.219774246215831 -47.44045639038086
v 25.612701416015625 2.0137739181518675 -53.55245590209961
v 51.694705963134766 13.195775032043468 -50.82245635986328
v 14.878702163696289 3.3117740154266477 -53.59245300292969
v 15.110702514648438 2.987773895263684 -53.26045608520508
v 25.076702117919922 15.037775039672864 -55.27445602416992
v 25.076702117919922 15.037775039672864 -55.27445602416992
v 21.530702590942383 0.9417737126350518 -52.23445510864258
v 17.776702880859375 3.1977739334106556 -50.018455505371094
v 43.90670394897461 20.623773574829116 -57.58645629882812
v 54.20470428466797 8.711774826049815 -46.794456481933594
v 27.40070343017578 10.54577445983888 -59.878456115722656
v 44.67070388793945 20.797773361206065 -55.658454895019524
v 27.750701904296875 7.719773769378675 -59.78645324707031
v 13.100702285766602 7.491774082183849 -53.396453857421875
v 47.396705627441406 6.201773643493665 -55.258453369140625
v 31.062702178955078 8.133774757385263 -42.45245361328125
v 27.76470184326172 3.309773921966565 -55.00645446777344
v 16.69870376586914 5.5097737312317 -46.40845489501953
v 54.44870376586914 9.89177417755128 -47.3044548034668
v 15.85470199584961 6.659773826599131 -45.92445373535156
v 28.218704223632812 5.045773506164563 -57.542457580566406
v 48.21470642089844 16.525774002075206 -50.748455047607415
v 31.202701568603516 7.143774032592783 -42.88645553588867
v 17.570701599121094 2.259773731231701 -51.076454162597656
v 26.270702362060547 17.97577476501466 -48.744453430175774
v 47.168704986572266 6.307773590087903 -55.258453369140625
v 48.32670593261719 16.093772888183604 -50.46245574951171
v 50.8087043762207 3.0797739028930775 -49.70845413208008
v 59.3347053527832 1.925773739814771 -56.56845474243164
v 59.3347053527832 1.925773739814771 -56.56845474243164
v 27.83670425415039 15.147774696350108 -44.04645538330078
v 52.56470489501953 3.955773830413829 -48.306453704833984
v 31.118701934814453 4.247773647308359 -44.57245635986328
v 26.570701599121094 17.99777412414552 -48.15045547485351
v 25.570701599121094 16.69777297973634 -54.15245819091796
v 46.008705139160156 10.047774314880384 -59.1944580078125
v 17.690702438354492 2.617773771286022 -50.81845474243164
v 17.690702438354492 2.617773771286022 -50.81845474243164
v 43.07270431518555 2.267773866653454 -51.33445739746094
v 45.25670623779297 18.001773834228526 -46.13445281982421
v 60.46470642089844 9.539774894714368 -59.11045837402344
v 45.008705139160156 11.30177497863771 -61.262454986572266
v 42.8087043762207 16.209774017333995 -42.89245605468749
v 15.85670280456543 8.413774490356456 -47.77445602416992
v 29.20470428466797 2.187773942947399 -50.65845489501953
v 31.248703002929688 7.721774101257334 -42.5904541015625
v 26.218704223632812 11.601774215698256 -62.48645782470703
v 31.102703094482422 4.293773651123057 -44.52245330810547
v 45.2467041015625 10.571774482727065 -60.742454528808594
v 16.278701782226562 6.181773662567148 -45.814453125
v 29.54470443725586 12.12577438354493 -42.078453063964844
v 25.44870376586914 15.999773979187024 -54.620452880859375
v 29.976703643798828 10.68577480316163 -41.88845443725586
v 53.20870590209961 12.04177474975587 -48.406455993652344
v 42.72670364379883 18.781774520874038 -60.76245498657226
v 43.370704650878906 19.831773757934585 -59.87845611572265
v 44.47470474243164 20.803773880004897 -56.07845306396484
v 42.57670593261719 16.053773880004897 -62.06445312499999
v 43.376705169677734 19.95577430725099 -59.6884536743164
v 61.41270446777344 2.9657738208770863 -50.878456115722656
v 45.19870376586914 20.60777473449708 -54.16445541381835
v 48.354705810546875 16.237773895263683 -50.72845458984374
v 51.90470504760742 18.04377365112306 -63.32045745849609
v 48.30470657348633 4.659773826599133 -53.07245635986328
v 47.850704193115234 16.785774230957042 -50.08245468139648
v 38.24070358276367 9.005774497985849 -41.03045654296875
v 45.014705657958984 11.293774604797377 -61.258453369140625
v 13.9447021484375 9.651774406433116 -51.04645538330078
v 45.75070571899414 10.243774414062512 -59.792457580566406
v 47.2627067565918 7.457773685455335 -55.61445617675781
v 46.97670364379883 9.329774856567395 -56.958457946777344
v 25.590702056884766 17.01377296447755 -53.82045745849609
v 29.128704071044922 2.085773944854748 -51.39845657348633
v 47.19270324707031 6.489773750305188 -55.35645294189453
v 47.19270324707031 6.489773750305188 -55.35645294189453
v 47.306705474853516 6.757773876190198 -55.23845672607422
v 47.306705474853516 6.757773876190198 -55.23845672607422
v 19.972702026367188 15.495774269104016 -53.04845428466797
v 45.07670593261719 17.72377395629884 -45.454456329345696
v 47.052703857421875 6.2197737693786745 -55.188453674316406
v 27.276702880859375 2.7117738723755003 -53.512454986572266
v 39.07670211791992 3.09377384185792 -44.96845626831055
v 43.626705169677734 2.9357738494873162 -52.61045455932617
v 40.208702087402344 1.659773707389842 -47.396453857421875
v 40.216705322265625 1.7897737026214704 -46.84245300292969
v 59.81470489501953 7.565773963928236 -59.792457580566406
v 60.75070571899414 5.021773815155041 -50.52645492553711
v 60.75070571899414 5.021773815155041 -50.52645492553711
v 48.21470642089844 16.317773818969737 -50.3024559020996
vn -0.8404406869559051 0.1333413917936908 -0.5252423487720767
vn -0.7385278304021641 -0.5870235530424777 -0.3316323143103784
vn -0.8689488675255497 -0.29039376662233063 0.40074845718101026
vn -0.8064497378730041 0.5203804333628984 0.2807900013490598
vn -0.424531158616707 0.08562833895848117 0.9013551369636541
vn -0.17552923853919675 0.6890652657104308 0.7031205771482323
vn 0.2612012191497953 -0.022454513937093714 0.9650231696278124
vn 0.6301773020142519 0.14115626728416664 0.7635125907491239
vn 0.29924015509379975 0.4610320827773696 0.8354069357082206
vn 0.29610730578420213 0.4624014113273671 0.8357663538715114
vn 0.3681392330687439 0.7707940254267028 0.519951993401368
vn -0.21079867694279142 0.9623904137177182 0.17137272065124035
vn 0.2856725599894148 0.8765031823634648 0.38747046310114125
vn 0.21333973483247534 0.9430481297917902 0.2552378938124506
vn 0.23467288719947357 0.8554364373057358 0.4616894386307026
vn 0.11013086024602105 0.9861116972959958 -0.12431779469360667
vn -0.18770817967180606 0.9465613140709754 -0.262273365000194
vn -0.19920196952670108 0.9303740876473375 -0.307770421533759
vn -0.6429000604891798 0.7054750441837644 -0.2983026554640851
vn -0.4235356762655108 0.4482724383973107 -0.7871907976492396
vn -0.29870859827524804 0.5715593298406564 -0.7642598418002455
vn -0.45336010749267797 0.2192067345186286 -0.863951978107526
vn -0.44193504956185653 0.05249571647632384 -0.8955096938171004
vn -0.389441314136656 -0.4524429472763736 -0.8022660670272568
vn 0.022205588456289234 -0.16022879592261183 -0.9868300992564525
vn 0.05859843763658246 -0.17529965188084543 -0.9827696857132936
vn 0.07129779271678972 -0.33085881798887096 -0.9409830324255167
vn 0.036659754941920926 -0.9470343027113504 -0.31903305762197287
vn 0.09412654593432274 -0.6804561690284484 -0.7267183741874162
vn 0.2873300651272689 -0.7552985652279859 -0.5890377840499753
vn -0.34390969610426436 -0.8942155042725808 0.2865392692878352
vn 0.45438974272355565 -0.7697589257943476 0.44833152673836485
vn 0.4340845714152802 -0.900797500764738 -0.01159514877931157
vn 0.8521477790669139 -0.4625312774775223 0.24476310993762376
vn 0.8118765834844661 -0.35049840716913877 0.4669124969001014
vn 0.8519586896641271 -0.463170169473958 0.24421258201666984
vn 0.8522631548102204 -0.4624025561024713 0.2446045605928704
vn 0.747912157285396 -0.2360154354936779 0.6204225327899004
vn -0.21409535602138252 -0.5338898349531861 0.8180005028505404
vn 0.9107713270898905 -0.007769127519348723 -0.4128380195773011
vn 0.4865261692965886 0.019009396741102774 -0.8734591744467091
vn 0.9199566578964674 0.0852354795873402 -0.38264168697552825
vn 0.6381689845890427 -0.34676924020599476 -0.6873801285719187
vn 0.9208205267349423 0.10135902381896143 -0.3765845268117783
vn 0.9307194275475784 -0.29476305599568997 -0.21650886357281016
vn -0.10447302252675315 -0.24551367531696924 -0.9637470740793345
vn 0.10988872137316281 -0.8250407268895849 -0.5542853668359621
vn -0.4875854170132099 -0.7401120392062577 -0.463135650255958
vn -0.8340161949082691 -0.18889212264973584 -0.5183982567790999
vn -0.5217397814690133 0.3119517270135391 -0.7940237530741362
vn 0.006109409290397871 0.5422551859275718 -0.8401916379331427
vn -0.3010676701167869 0.8785867076718347 -0.37073394113948566
vn -0.8065887311773037 0.5645719740522688 -0.17513738850545754
vn -0.46123130205673096 0.8752232398176398 0.1457736824195867
vn -0.9071825874166557 0.38191479997874084 0.17652432876297916
vn -0.6054638108631561 -0.7948686399728389 -0.03996772351277516
vn -0.5859972599839691 -0.7601753764806071 0.2806075698976197
vn 0.3425656154235616 -0.8634562228154989 0.3702595716665106
vn 0.023382325686362147 -0.9968099407741204 -0.07630995229582792
vn 0.34576866535103934 -0.8635591394516324 0.3670281225341144
vn 0.3437964637997908 -0.8628569295011913 0.370515736090298
vn 0.3405514659433583 -0.8644238119271606 0.3698596658425284
vn -0.17884276485263506 -0.9681450550266499 0.17524388116938594
vn -0.4105925552078528 -0.8936160838179235 0.18128444045147526
vn -0.4156613065331088 -0.9059555559840757 0.08043760832330327
vn 0.35285552904855844 -0.8636975912305754 0.35988810277968875
vn 0.5815571497374228 -0.794287615257921 -0.17577959448459857
vn 0.6439168224903213 -0.7262556371596325 0.24067379418587329
vn 0.8660671990562622 -0.4925558726060143 0.08553548433351416
vn 0.8657995761932281 -0.49308828810847777 0.08517648732999991
vn 0.8660700905307968 -0.4924037151703026 0.08637811976687693
vn 0.8946281072647281 -0.4268554745754209 -0.1320414840757343
vn 0.49891373572577097 0.860235147400284 0.10526431247753104
vn 0.18754283529769045 0.9429897387381782 -0.27495097301701965
vn 0.13350061467720814 0.961009148925732 0.24215491232235556
vn 0.4978769200011802 0.860796830493856 0.1055811969143653
vn 0.499328150506675 0.863241704909552 -0.07406184588864395
vn 0.13174392946191016 0.9611276872021369 0.24264605074759868
vn 0.06516436069115124 0.9137792449406642 0.4009502433112905
vn 0.03964588790846243 0.8886416553810539 0.45688533779666207
vn -0.6997785283420312 0.6837742646387154 0.2067916011090518
vn 0.43509019044163205 0.7534990498482861 -0.4928850860588039
vn 0.4350045781699144 0.753537980668647 -0.49290113477352904
vn 0.43532470003443124 0.7534330510578717 -0.49277889881117976
vn -0.6575877547327746 0.22765509371742657 0.718158410888585
vn -0.7941415649531575 0.590838576789326 0.14229880881902585
vn 0.8948467759403368 -0.4194704791580883 -0.15262294946720378
vn -0.81439031133651 -0.268724127015672 0.5143498462728332
vn -0.9052703995333374 0.3957929321359616 0.15438088806575037
vn -0.7523239971693952 0.459296502090902 0.47228733462811173
vn -0.5016960201446671 -0.14075761373315904 0.8535153176991896
vn -0.3249612087864569 0.3743868738989285 0.868466856843848
vn -0.047405811235545145 0.7745755640656081 0.6307022947584264
vn 0.18115158078411392 0.19978511001872015 0.9629486043368173
vn 0.3814215731210273 0.48097945156417193 0.7894151954015767
vn 0.3403276920479936 0.6181574139346959 0.7085608468034732
vn 0.37221026920410966 0.811195742056061 0.4510221541888166
vn -0.0658947801957659 0.9971658232228299 0.03630700950625626
vn 0.3710334623078432 0.8111351184992404 0.452099534820683
vn 0.37124846494693303 0.8108910509547097 0.4523607860503741
vn -0.48158872653658585 0.8545597952246868 0.1944218476879873
vn -0.48980217108688595 0.8534405565470955 -0.17813772660263907
vn -0.21362317045846105 0.9146155860328016 -0.34328336812195
vn -0.5185987435292148 0.8488576546367342 -0.10245011163753101
vn -0.39338929682079776 0.9180475261748337 -0.04933153992230904
vn -0.2648001351989927 0.6992612583525153 -0.6640139915437413
vn 0.26624353185822197 -0.9608398005647008 -0.0768196550008279
vn 0.44185827821556706 -0.6842868716459697 -0.5800971808803647
vn -0.04131132457569086 -0.9660683492442516 -0.2549614069820936
vn -0.3502323199016094 -0.9185387150100081 0.18336834820682552
vn 0.1813107961528451 -0.9056100666649002 0.38340162017604545
vn 0.518388715985999 -0.7405114310206473 0.4276867541392187
vn 0.6290131271115442 -0.7747218086504852 0.06440966637607233
vn 0.5413809344369054 -0.8387066606796434 0.05897305452344257
vn 0.49617968046996935 -0.7417625494438608 -0.4512139680143589
vn 0.8819332621202276 -0.4612727994496369 0.09706248324594338
vn 0.7376350732019678 -0.35545044892345273 0.5740640009114346
vn 0.4540014633602477 -0.23438723739554373 0.8596192728253821
vn 0.7377996599240934 -0.35499993710231276 0.574131262407166
vn 0.7676448638534187 -0.16314006728517297 0.6197634076368626
vn 0.7554389235371041 0.12768036122042808 0.6426583525978032
vn 0.7148460385944804 0.15342359751723542 0.6822436081273668
vn 0.12009296768110145 -0.42844603507945617 0.8955510449651874
vn -0.45186630739396855 -0.6499156477825188 0.6110863204241839
vn 0.04212969464949578 0.5508535404185075 -0.8335379210552667
vn 0.3091939298483798 0.9317004111699441 -0.19061337196186584
vn 0.37760215033410094 0.8825351471000964 0.28026475018466757
vn 0.5008337266952164 0.2589478969473082 0.8259004569989943
vn 0.5006272053231973 0.2595066651803064 0.8258502842630023
vn -0.3324470671052731 0.14920250411760735 -0.9312451666119602
vn 0.21468242724687853 0.17131926198302364 -0.9615410370363716
vn -0.06951625243250621 -0.4084340097801392 -0.9101368854752878
vn -0.4950509333404933 -0.3827368887272916 -0.7800237479757005
vn -0.6658682673708338 0.28394904095300894 -0.6899220192532125
vn -0.6879642583695367 0.6307831336801615 -0.35891199126065554
vn -0.2603308229408265 0.5598950915351893 -0.7866036798170689
vn -0.3212197338659526 0.8731034764931475 -0.3667535983608977
vn 0.17936531010126874 0.7856137884308682 -0.5921478370808888
vn 0.347248134739406 0.689783091423983 -0.6353093889638152
vn 0.5120630807729081 0.34701579452731024 -0.7857298770302282
vn 0.5123179430918738 0.34656545732689453 -0.7857625016338666
vn 0.5180319956492975 0.3516998759964591 -0.7797115163364471
vn 0.5396014920331239 0.12758604880240618 -0.8321971100326032
vn 0.7900043795838398 0.4977439763492021 -0.357972085848097
vn 0.5422840991605504 0.8202393764705076 -0.18203109922456354
vn 0.8510342758885218 0.44661402295646885 -0.2761821423653929
vn 0.790836715251108 0.49692831148336364 -0.3572667673561749
vn 0.7912531323379633 0.4964789862499576 -0.3569693218997619
vn 0.7354971911257747 0.6629063021502516 0.13999684430577347
vn 0.8876935703609767 0.4044222173700004 0.2200972404127637
vn 0.8767867608805094 0.4086059316931054 -0.25354717219853506
vn 0.762633795473486 0.6401755767534675 0.09254687963443312
vn 0.9953744657148648 0.09253853424685736 0.025812645782457438
vn 0.8718219572556618 -0.06645503772124503 -0.4852939344442448
vn 0.6248178374237149 -0.25229334395880587 -0.7388847938828057
vn 0.8697288179287996 -0.06494450975867777 -0.4892381770839002
vn 0.8796636639040062 -0.16942476418836103 -0.444395193140855
vn 0.8799328853881808 -0.18093043932817812 -0.43929749980729804
vn 0.879817763483269 -0.18121364293586598 -0.4394113319808798
vn 0.8796573532859026 -0.1814683157667801 -0.43962733216078476
vn 0.8791689216396256 -0.18160025650879572 -0.44054892357030856
vn 0.8029217171758474 -0.3485615909503669 -0.48355096256913543
vn 0.880035763743525 -0.18097479759169824 -0.43907308864128153
vn 0.8798632181306133 -0.18077128220655117 -0.43950251524904904
vn 0.8795197801511294 -0.18183345006608972 -0.43975169443672607
vn 0.7598791047744377 -0.6298923430516513 -0.16068410715469017
vn 0.6091737629548839 -0.6615661850960057 -0.43730711092423874
vn 0.26366487828078633 -0.9641058098546996 -0.0313180357875763
vn 0.6616293713730428 -0.7456913506774794 0.0786828091854163
vn 0.6382595916842317 -0.7604059600960373 -0.1200311187713482
vn 0.45549193523066667 -0.8681158518419116 0.19723580993474404
vn 0.6385074513151011 -0.7601352041907993 -0.12042718117146761
vn 0.638453852882326 -0.7602502246617533 -0.11998447250151503
vn 0.45527588950100145 -0.8681175069752745 0.197726726878554
vn 0.02082161563866049 -0.8737614762340966 0.48590878050453856
vn 0.48717319026172473 -0.8140659673333355 0.3161627484696035
vn -0.13420460640652424 -0.971858049618116 0.19360024538140808
vn -0.2793484404481697 -0.8561476100721698 -0.4347133752104797
vn -0.4426774750997302 -0.893724754324664 0.07275105873213633
vn -0.6208195339221888 0.6751623424404186 0.39842052865157845
vn -0.40526727820607317 0.904083094971911 0.1356178107825523
vn -0.04136857366387242 0.7523817972372756 0.6574270091036905
vn 0.10128976959860325 0.9234147577984066 0.3701966607828492
vn 0.5030536172812223 0.7100911901990193 0.4926535900021609
vn 0.2240138471071392 0.5144422923971737 0.8277481042547908
vn 0.503433606996997 0.49755983791601527 0.7063914007396905
vn 0.4868546049657516 0.44307514309677365 0.7527662394086332
vn 0.8055747228158808 0.454633061450833 0.37994492416133113
vn 0.84367198892979 0.36325890730933136 0.39529804117359674
vn 0.8069553349004347 0.43939962840251673 0.39465308061062626
vn 0.8067704738138126 0.4394987686426252 0.39492054257008746
vn 0.8062728939665454 0.44471557889650215 0.3900667562630284
vn 0.9677259163367868 0.07864919172688366 0.23941774264000176
vn 0.30452596634343604 -0.364486539256983 0.8800076695819555
vn -0.09269163890002165 -0.4589320259636365 0.8836230280062533
vn 0.3247583170114988 -0.5686902333168075 0.7557271029028493
vn 0.3572321086992653 -0.6506755623199907 0.6700794976074409
vn 0.30748981582573287 -0.6141831943790369 0.7267936549708033
vn 0.30727259569512255 -0.6142041335990228 0.7268678244389797
vn -0.20274253189100136 -0.7621523701853076 0.6148326848690983
vn -0.2799746737741607 -0.12305756113512241 0.9520877158605334
vn -0.2997387159396859 0.4088744668211159 0.8619619321922379
vn -0.013770063537649093 0.018350079828792595 0.9997367953218717
vn 0.2509631239876622 -0.17817726897083472 0.9514569728686884
vn 0.3771187752950112 0.10585624231836237 0.9200955848618267
vn 0.37697620590132425 0.10554084481737575 0.9201902359074873
vn 0.39957489926770057 0.11984488028285688 0.9088328254113595
vn 0.22999271806024305 -0.21622212372625232 0.9488684539231825
vn 0.23109627219789278 -0.21656847421617198 0.9485212749073774
vn 0.4847689332344312 0.16922973310613285 0.8581144322312606
vn 0.4740920166309248 0.868367148727712 0.14551719753117387
vn 0.08392604088881996 0.9875247660854505 -0.133233839652712
vn 0.159710113049173 -0.8041248513630684 -0.5726044910845038
vn 0.3417628304209177 -0.4043936959875513 -0.8483300692467591
vn 0.9944179754733705 0.0015256026681268835 0.10550148146799546
vn 0.7351659766006771 0.6627433565758294 0.14248589461197814
vn 0.7352976041651996 0.6625692699033542 0.1426162539427178
vn 0.7354266135857288 0.6623711665598696 0.14287103884253397
vn 0.7344149136860747 0.6635359928146058 0.14266997159532505
vn 0.7351528869069908 0.6627231061543667 0.14264752869021313
vn 0.5398416748804645 0.10865081109268183 -0.8347250848699571
vn 0.5404506834413073 0.10903370204166277 -0.8342809542275995
vn 0.8059790421749942 0.1579096224572173 -0.570493062806287
vn 0.8701306916284258 0.19444254947014553 -0.45284067224774266
vn 0.6544091156813691 -0.4841199710341876 -0.5808412545256975
vn 0.4278574929257154 -0.1154533785889656 -0.896442124802106
vn 0.19918167117221067 0.48419713464182706 -0.8519857960516065
vn 0.508029440159776 0.4082101714796779 -0.7584659147459935
vn -0.07353251826279504 0.7343276541400412 -0.6748006113831818
vn 0.018978213250297925 0.9195992635981695 -0.3923990593917505
vn -0.4512498079336307 0.17649256853132872 -0.8747708180392596
vn -0.4486234979197593 0.4199173633059229 -0.7889273509699365
vn -0.4406495970270086 0.05455566920284048 -0.8960198723230224
vn -0.04063870862613235 -0.5399493118286376 -0.8407159068418896
vn -0.6429526918081944 -0.21126357089608908 -0.7361925968853735
vn -0.4425380968717251 0.05360098367579177 -0.8951463385202104
vn -0.44531696831944767 0.0522702294405296 -0.8938459715415237
vn -0.445780316480327 0.052121472956475595 -0.8936236688313189
vn -0.5806571727005434 -0.5488037955081434 -0.6013747931425687
vn -0.37273359657602934 -0.8048197108515415 -0.4618819102415019
vn -0.37112791849181104 -0.8054998196424145 -0.4619892949755151
vn 0.02014318151677898 -0.9942742798973913 -0.1049424059801667
vn -0.3732212886256595 -0.8045623527410596 -0.4619364569595837
vn -0.5479990844805981 -0.7671168453327014 0.3335097435086877
vn -0.5585088788873838 -0.7692071876742665 0.3104643854521859
vn -0.5454724636684326 -0.7640180279761534 0.34458125936695966
vn -0.5404495706239916 -0.7663561260792178 0.3472931753334593
vn -0.5747817762542811 -0.6713070282506115 0.4679452783256886
vn -0.20226435930104034 -0.8787664421292865 0.4322715224762964
vn -0.5988646593586827 -0.3186173656129172 0.7347408346492614
vn 0.49075051894958677 -0.17819066255939411 0.8528845267252512
vn 0.7142908864784216 -0.19697449261919694 0.671557576646471
vn 0.44173589358538307 -0.046961021245642325 0.8959152096051778
vn 0.5050024699383153 0.2422261237377363 0.8284316570093104
vn 0.11055016640990632 0.5806256001408611 0.8066303820014511
vn 0.11054148743147671 0.5806477780489093 0.8066156069673468
vn 0.08024495873354329 0.591075065203261 0.8026151094346607
vn 0.3298379550422473 0.7320262878785148 0.596107739648086
vn 0.11053535605928583 0.5808750921125947 0.8064527651536895
vn -0.5362441918058526 0.7596736241850945 0.3678833394868159
vn -0.5580852390699759 0.813337768339312 0.16438534157593052
vn 0.5732178292293466 0.6446666346738691 0.5057926950756245
vn 0.5819859836087872 -0.7065287507151295 0.4026281650553413
vn 0.8068702830261931 0.5885944810959256 -0.05016854784273974
vn 0.2741973570130968 -0.9279933734630983 -0.2522778393272204
vn 0.3538184737724833 -0.6770339561739768 -0.6453196958134194
vn 0.3538785251856609 -0.6742807575391688 -0.6481631348856753
vn 0.35375623369511905 -0.6742832965934886 -0.6482272464628911
vn 0.4162344748240595 -0.6881249242291522 -0.5943340395960531
vn 0.054233109050432764 -0.8511780709872917 -0.5220676789009996
vn -0.08387257816919094 -0.5145283745167217 -0.8533615543533896
vn 0.35615904450855734 -0.687470105867198 -0.6328788103212929
vn 0.3565298746563371 -0.6875604641177873 -0.6325717798476862
vn -0.202591065535352 -0.4410197198267185 -0.874333155547251
vn 0.5050381272923411 0.6562055751642726 -0.5606520606440072
vn 0.5033285843097983 0.6549991482788982 -0.5635924520170689
vn 0.5032918121030798 0.655079500353586 -0.5635318980204176
vn 0.5785502142547995 0.6164074444870252 -0.5341549512704159
vn 0.5032686576474771 0.6551746706933403 -0.5634419305585799
vn 0.6738293690879975 0.7360959565958817 -0.06416170226595483
vn 0.9844032247688099 0.00798894677018648 0.17574546308303596
vn 0.8543076113178041 0.38104105539405375 -0.3535056143099477
vn 0.8537123238837786 0.3844346449706646 -0.3512623973545098
vn 0.8536507351394292 0.3845837323543772 -0.35124887929257353
vn 0.8876629755936739 0.03855898840845435 -0.4588765042722295
vn 0.9481864023412544 -0.20469455320980198 -0.24298700850331187
vn 0.9464066791474557 -0.2712066646602568 -0.1753891179889561
vn 0.767822897098976 -0.6264773300265688 0.13406772040024081
vn 0.9468413577245738 -0.27100178558888993 -0.1733478454147014
vn 0.9466803872814359 -0.27123043522372486 -0.17386861518117475
vn 0.7149067418690039 -0.6212008506484069 -0.32096394436749565
vn 0.7537027337322868 -0.3753368723795413 0.539494598116442
vn 0.8595743610812421 0.2626253316193831 0.438360414457765
vn 0.40361817545017836 0.14403129712190518 0.9035194264074516
vn -0.075864675037046 -0.5734261453945175 0.8157370942034626
vn 0.31476670134797274 -0.8794044749215022 0.3571689981095126
vn -0.23190378322322125 -0.9655753652932452 0.11783399028113
vn -0.4960213621796455 -0.6468497748477915 0.5792652044105622
vn -0.48473173327883196 -0.20439243294717768 0.8504462829047069
vn -0.14710204972940952 0.08211119015017537 0.9857072280436663
vn -0.35554371785582456 0.3073841761224371 0.8826684728496812
vn 0.01734620702034934 0.6105059970041408 0.7918216571450841
vn 0.23170939513050492 0.9527938540772313 0.19620047869694784
vn 0.3881279218974008 0.7101358700164905 0.5874212818408329
vn 0.6260349755514667 -0.6961448198151792 -0.35137245087053515
vn 0.6267345816386313 -0.6962228119853154 -0.34996794174539775
vn 0.9663002754891353 0.2514638373384494 -0.05504285694477603
vn 0.7193809205633727 -0.22013766894969938 -0.6588099102463373
vn 0.7108379464064626 0.021800892003200203 -0.7030178767687971
vn -0.06613269303362673 -0.24309478167463355 -0.9677455213198779
vn 0.10377742385391366 -0.7707276370508191 -0.6286566278854508
vn -0.4633615851256355 0.3449612811428428 -0.8162706389073091
vn 0.0018850332037634962 0.517877608290032 -0.8554526459609656
vn -0.26209244266034776 0.8750098392398119 -0.40702006428903575
vn -0.06904357397226124 0.9789954034663934 0.1918358279488236
vn 0.4624984593999402 -0.39433846586304966 0.7940984506932739
vn -0.15360217600754028 -0.9845791974670037 -0.08372679046147466
vn -0.17047323094419847 -0.9560837637921372 -0.23841710119978116
vn -0.020763834863760846 -0.9728355372741353 -0.23056426561437302
vn 0.2922811401313162 -0.9333799495794497 -0.2082633065295029
vn 0.8556826033906414 -0.09033392284501837 0.5095557522372255
vn 0.8652035368654193 -0.4921282442670108 0.096086580698027
vn 0.8924359156822818 -0.4404843482113607 -0.09763029950348415
vn 0.8521347785223206 -0.08076602536456047 0.5170523845603331
vn 0.6387769771656084 0.29752645789718213 0.7095364545210656
vn 0.5244963457404572 -0.3027149261244931 0.7957809100539855
vn 0.8523595918759665 -0.08049652715649518 0.5167237513921529
vn 0.45936292205566065 0.8071384466424164 0.37082776836713865
vn 0.6760120765085076 0.7368901778807224 -0.0007335922387332123
vn 0.25502976242083414 0.9450857441762491 -0.20438384582544256
vn 0.16847378195355317 0.5660293854136628 0.8069865672007791
vn 0.49889733866664177 -0.3107765284525306 0.8090237294630704
vn -0.1701797633185412 -0.9559735910389894 -0.23906765024332446
vn -0.16353786533708536 -0.9537771064264106 -0.2521202051757309
vn -0.16696985222495245 -0.9550113171478086 -0.2451009028289881
vn -0.1712621963944917 -0.9564390317664464 -0.23641835503995265
vn 0.516373550338411 -0.7645413204795228 -0.3857912982304446
vn 0.5396523250294338 -0.7528577728599218 -0.3768030545719138
vn 0.8937910184889785 -0.42448571256549916 -0.1447394040895403
vn 0.8939446782099006 -0.4242321256211897 -0.1445337880605226
vn 0.8937671704988336 -0.4244850823105343 -0.14488843927079878
vn -0.2775756998320484 0.06074571946068006 -0.9587813559044381
vn 0.25449237456411933 0.18043704493264137 -0.9500926818498772
vn -0.06945209168342084 -0.4085292794510696 -0.9100990247176336
vn -0.5535926238811213 -0.37652874101812733 -0.7428063771749132
vn -0.0003715109058262901 0.5375915565739808 -0.843205301382772
vn 0.233108526663029 0.7618016314790241 -0.6044159900870336
vn 0.5021444217315701 0.5827009972942292 -0.6389918054843724
vn 0.6545625916317598 0.7350577702236928 -0.1767424342654785
vn 0.4119005859733622 -0.056465961507415355 -0.9094775986608156
vn 0.47325622042880094 -0.7450742565294681 -0.46999244896328546
vn 0.27435595742874197 -0.9613757464882305 -0.022033671676682194
vn 0.5480106717876642 -0.8140641814689642 0.1923117574567355
vn 0.20394550318942048 -0.8478361987115302 0.48946911228717704
vn -0.13429736991392788 -0.9718558716171197 0.19354684507253025
vn -0.28252481108102223 -0.8549509845301533 -0.4350155688875449
vn -0.5673285269991781 -0.8077109064041508 0.16044137287098956
vn -0.7190494892676079 -0.6484436713216399 -0.24997727318079335
vn -0.8640112508217216 -0.3190147066621139 -0.38950503897481176
vn -0.9091591665163579 0.003183896385132617 -0.4164366371287354
vn 0.10131860701283742 0.7750305642584265 0.6237484784255937
vn 0.15180583555107166 0.9109212314265566 0.3836371963574003
vn 0.5339013988866388 0.6820465992273165 0.4997616759509899
vn 0.3305693918730865 0.41985268085427413 0.8452500242745556
vn 0.683845096105714 0.2627893660619506 0.6806597047107497
vn 0.4861649403794273 -0.12296689619192303 0.8651721176660704
vn 0.508088001952292 -0.5468812088760536 0.6654077889913781
vn 0.11756850839555338 -0.4925057303239356 0.8623315785889624
vn -0.2290645160029366 -0.7773983201245832 0.5858167796980694
vn 0.19832088557471314 -0.012022937022367631 0.9800634037296861
vn 0.4741890781488053 0.8682949589743225 0.14563166683165446
vn 0.24577055730982877 0.956666523709483 -0.15616016000641503
vn 0.15998198558399004 -0.8041177030393821 -0.5725386309649962
vn 0.326828543183446 -0.3976582270535772 -0.8573511753168547
vn -0.5780771670036561 0.4974359611193712 -0.6468262931995532
vn -0.09220528098947837 0.859025024016307 -0.503561509918535
vn -0.8285354408605776 0.49638695311837705 -0.2590926784218776
vn -0.7099182173549096 -0.17305557866353743 -0.6826916517440764
vn -0.2174708143264359 0.8936997837356909 0.3924374363729535
vn -0.19663907096656696 0.940702843785283 0.2764258227150404
vn -0.04812823637193319 0.9267455990695388 -0.3725939713266561
vn -0.11837290401422457 0.9551938907448017 -0.2712793517373689
vn -0.229388529644216 0.9693884655925628 -0.08756086593770773
vn -0.3669792738793162 0.6277862237488661 -0.6864478638717935
vn -0.36759780103806555 0.6274884555937367 -0.6863891715117351
vn -0.8282791533332333 0.496678033958023 -0.25935414925768097
vn -0.34342396259685837 -0.41718795896035654 0.8414357900712115
vn -0.38679007742008853 0.7936036786001901 0.4696665171391381
vn -0.19996545406900845 -0.30165951234276833 0.9322099311807927
vn -0.13879343036155203 -0.18988132829842688 0.9719472541512211
vn 0.022192911520985834 0.4792615629787372 0.877391491256554
vn 0.31942657213574127 -0.6253917938894635 0.7119352281979935
vn -0.38812685858898555 0.7924537831439107 0.47050456238250155
vn 0.1523064274277342 0.08911969795702615 0.9843070819618485
vn -0.6203321830353881 -0.6628871576998614 0.41924765812959386
vn -0.8413199274114594 -0.521667187888986 0.14157727508457554
vn 0.7348412984979704 0.6631274325858383 0.14237371307208196
vn -0.0008759098477152068 0.974899092492085 -0.2226454406450943
vn 0.7344189991299146 0.6636074879926948 0.14231597098372378
vn 0.8525666003044458 0.335383236588622 0.40080952665906
vn 0.7898402756416257 0.5345522321619318 0.30067632109139675
vn 0.7236102314768526 -0.6867522087984541 -0.06899011967275086
vn -0.7882144516676017 -0.11471705979120782 -0.6046139052115839
vn 0.8440473644301025 -0.4102368645869617 0.34538349921855893
vn 0.6613768905832268 -0.7467434450052258 0.07039059556638165
vn 0.6387663697810776 -0.7598674552131455 -0.12074342774910042
vn 0.6512543043717928 -0.4904727547665657 -0.5790546674269265
vn 0.7641431600216724 -0.6048070717905265 -0.22426242865059182
vn 0.6007450901953644 -0.5121054720053688 -0.6138838018292401
vn -0.7595611135264618 -0.1416330322723947 -0.6348283224524313
vn 0.6663807815131113 0.05415530280281165 -0.7436422911644485
vn 0.8746628532038292 -0.09128588198769494 -0.47605858985535127
vn 0.8093308884749048 -0.3381505045239511 -0.4802475916135533
vn -0.28752740585061126 0.4783191873702572 -0.8297823484976494
vn -0.5759499689819447 0.0018428153613135323 -0.8174828666469046
vn -0.44561083900780746 -0.38593478548946786 -0.8077656352605974
vn 0.03798679948060546 0.9014158703999989 0.4312846295153961
vn -0.6825441585469916 0.6571844092457743 0.31975322340464657
vn 0.05480708181296991 0.8799686428907181 0.4718594825922374
vn -0.28124241000186195 0.23722330544999853 0.9298536498652469
vn 0.4219744469619193 0.819774978731723 -0.38717767285393095
vn 0.5043528797762028 0.6563400784594713 -0.5611112849241817
vn -0.04796527545017445 0.04801104436886999 0.9976944782695748
vn 0.6012416624194692 -0.5106095286240333 -0.6146432889484889
vn -0.39532570409098283 0.8327794329390008 0.3875512917779592
vn -0.9137171219825896 -0.19311089207026919 0.35753210255818774
vn -0.46483498317292055 0.7740597046533907 0.42983719249331614
vn -0.8279099730759849 0.2477965136613756 0.503152029011699
vn -0.158864052035807 0.9862212863625833 0.04614961859100993
vn -0.812347273575034 0.42889146976606085 0.395150622265886
vn 0.7234308425679663 0.6771249457826346 0.13472053971190368
vn 0.8891255639933789 0.1406414678452752 0.43551774817541283
vn -0.6840328169834285 -0.639957863145842 0.35007576135391466
vn -0.5811277344641431 0.1867486189969676 0.792095644186545
vn -0.4489031094338397 -0.17620651260257142 -0.8760349669146033
vn -0.4955671719422889 0.7598920769807584 0.4206865928871409
vn -0.05075476771029646 0.04461493413351763 0.9977141179751522
vn -0.7802283224532264 -0.08899527852828296 0.6191313311741681
vn -0.19947270958627902 0.7597805823227516 -0.6188247771830153
vn 0.9102368555153537 -0.1617507821162366 0.3811896527272308
vn -0.557484944068801 -0.3982243675592592 0.7284420980549063
vn -0.9832161340176497 0.0549968682501482 -0.17395797851798184
vn -0.917000388856766 0.35041772398902893 -0.19057204818883783
vn 0.0711204019046921 0.8468936467127395 0.5269848570789416
vn -0.35674121465933833 0.29835983196603305 0.8852779882232362
vn -0.8282514988879214 0.4969133841685236 -0.25899139604260374
vn 0.49447797520318953 -0.326132498160658 0.8056855004792143
vn -0.8285206762013356 0.49627737442908965 -0.2593496804251947
vn -0.5200657987690956 -0.6586055340849184 -0.5438476950612018
vn -0.5828125157399938 -0.7889815943383289 0.19451893299154271
vn -0.9416722934454612 -0.20914965164173363 0.26364695138633176
vn -0.919876847411411 -0.17294061814172984 0.35202006788420487
vn 0.05760912095240332 -0.7823979172892915 -0.6201086100067233
vn -0.8168325684828807 -0.5537737976608944 0.16161415807376134
vn -0.27985126619095246 0.7042953583148279 -0.6524195866675898
vn 0.182754099003804 0.33001420125298775 -0.9261163891588682
vn -0.9747515528640948 -0.15069450759374453 -0.16477431708283535
vn -0.4542181162083838 -0.660387137503409 -0.5979755275328252
vn -0.021272375134874854 0.9354049923028047 -0.35293765232844043
vn -0.9900232568798625 -0.10399813847217096 0.09507017424677933
vn -0.9198588416771597 -0.17275122711976285 0.3521600842187684
vn -0.8783486920967039 -0.47718589625682745 0.028234650796107215
vn -0.7556992680612395 -0.6302687948945888 0.17798837724365482
vn 0.8277987601674881 -0.4144058109336331 0.37817593330301635
vn -0.39974085879206367 0.7476611992053458 0.5302923505152677
vn 0.3146785625099512 0.9297765869920814 -0.19103115080537847
vn -0.8817347362003061 -0.4078486320241795 0.2370724537642073
vn 0.42692003701090436 -0.2103664926622578 0.8794800854843663
vn -0.9842944171125217 -0.12902112339143604 -0.12049087168716599
vn 0.02890227625173279 -0.7788499893708667 -0.6265439749007802
vn -0.8673557848624379 -0.4839236222609931 -0.1162405707292602
vn -0.9827332714010965 -0.1354065865426108 -0.12609668354947928
vn -0.6116178443003385 0.3941674408844229 -0.6859705832468561
vn -0.6132862671901439 0.43069229260289255 0.6621058099491681
vn -0.6260446407904678 0.37634835235474656 -0.6829568254416979
vn -0.10491142548836133 0.9553611394071145 -0.27618596291763275
vn 0.8761245773196853 0.2991974802588517 -0.37800342964470124
vn 0.9134536117352534 0.01845203844673204 -0.406524318442306
vn -0.7929124959925641 -0.11744807849839056 -0.5979094601659
vn -0.22423386778321952 -0.4411873559662647 -0.8689493020162188
vn 0.07148917347339293 0.966614666810813 -0.24605971629324574
vn -0.9945506867680362 -0.10337377150554936 -0.0135201632366654
vn 0.911245162290903 0.006738470855462014 -0.41180923643351663
vn -0.20088435115998893 -0.4437671768692303 -0.8733362297491977
vn -0.3272593279938913 0.8341596189524649 0.4439358763944018
vn 0.6059526531230343 -0.5092108022872184 -0.6111675228668184
vn -0.7487081523571208 0.5281477139751106 -0.40061963858109945
vn -0.5477406439020802 -0.6896364163913266 0.47368956100452864
vn -0.8221313013511639 0.16292106114931257 0.5454877186267567
vn -0.7609597141972627 -0.019540049889300186 0.6485048186553003
vn -0.6211111848205474 -0.6620655343110957 0.4193925659429112
vn -0.7813800240873621 -0.6172319858851526 -0.09203224194544096
vn 0.8675089367086339 0.4284543336378263 -0.2526957235839608
vn -0.6658962412004217 -0.5445177590278204 -0.509982946831039
vn 0.7940027052719418 0.49448179793807506 -0.3536204964771789
vn -0.7558850832281594 -0.14342706618000287 -0.6388007652156935
vn 0.3041664111653098 -0.6851828205799773 -0.6618211969262413
vn -0.8162924196480804 -0.5549058822025936 0.16045606103243135
vn -0.6571126693231195 0.22726641986156262 0.7187161569203466
vn -0.982652861891273 -0.13574499819547184 -0.12635920418316193
vn -0.573727993877076 0.48712754590725793 -0.6584397793725394
vn -0.583720801145605 0.18475495211886603 0.7906551928479878
vn -0.24994964242412485 -0.9128927893392468 -0.32272578363753635
vn 0.03476786951541734 0.5553915445606853 -0.8308618582411009
vn -0.8282558146952123 0.49678440832486553 -0.25922491598780284
vn -0.7086709332480318 -0.17353024055739164 -0.6838660424245799
vn -0.8209080192979111 -0.5545637267687543 -0.13626847326043837
vn -0.6574186376185152 0.22760198522626665 0.7183300573085312
vn -0.5514549443813661 -0.6474650303563888 0.5260099607259779
vn 0.3493692377066286 -0.7700767137504451 -0.5337817818955651
vn -0.5471084119909843 -0.6899107852749488 0.47402056272909415
vn -0.08803289366110204 -0.9575661020077761 0.2744401026076296
vn -0.827859708885664 0.49767818994637186 -0.25877542707035867
vn -0.7174447083257475 -0.6959640887045486 0.03011773114014488
vn 0.02683489191026953 0.3979551144824317 0.9170123311239815
vn 0.13184472278862377 -0.7606804597880494 -0.6355959464702655
vn -0.3866482259835611 0.7937321438025686 0.4695662181613406
vn -0.7695289468265923 -0.6337813315275174 -0.07839913139290987
vn -0.671809694464574 -0.6970198969987068 0.2506690998334812
vn 0.04251410543457026 0.5504143486260833 -0.8338084886025224
vn -0.8286536010097945 0.4963584943140431 -0.258769114570878
vn -0.5766248750263442 -0.7987753814361834 -0.17164394400133215
vn -0.7556613889889162 -0.6298929127924248 0.179473629275213
vn -0.6249391633605581 0.7806446798395665 0.0067026812833763695
vn -0.08280062749189931 0.25025227888690066 0.9646335330055972
vn -0.7875427180766884 -0.11723319556529943 -0.6050064834875158
vn -0.6747477885466933 0.6635280492333943 0.323180986030851
vn -0.7713837373738918 -0.25206201452151716 -0.5843217183627877
vn -0.9946124795991078 -0.10258732855759413 -0.014894812692015088
vn -0.9747978284115181 -0.14944167182594728 -0.16563930827570605
vn -0.31828311006258575 -0.418124942928008 0.8508039691670096
vn -0.46005177925531726 -0.8591623942711404 -0.22403647175024533
vn -0.7556147616868034 -0.6303992902084019 0.1778849820129245
vn 0.026661338021446757 0.3912407717233706 0.9199020771778961
vn -0.9010288312689754 -0.4303852723423239 0.0539959495970576
vn -0.5725275607465214 -0.6218638777861832 -0.5343196699452201
vn -0.0475998751835613 0.04817192332018609 0.9977042235483137
vn -0.3164799457273728 -0.41819229006374437 0.8514432761397793
vn 0.9107713270898905 -0.007769127519348723 -0.4128380195773011
vn -0.7419044744647127 0.6546477405193472 0.14496236270891766
vn -0.20242539927529749 -0.4382166456802422 -0.875779726402132
vn 0.503387730730851 0.65576539018452 -0.5626477988811373
vn -0.6181603086996442 -0.6297621144108486 0.47040143707384413
vn -0.561133282935665 -0.7672953844131942 0.310462931507211
vn 0.6631295877318131 -0.724077419503341 0.18966032911502112
vn -0.5907056874828415 0.317995605007715 0.7415831618714122
vn -0.29399997343842704 -0.41902027029945166 0.8590611321066614
vn -0.6210050417284715 -0.6625037016631026 0.41885747388641204
vn -0.8123642132925164 0.42903652400261966 0.39495828391537807
vn -0.9046152765859794 0.334795174604486 -0.26378664186956774
vn -0.17399000669848558 -0.956684244198142 -0.23341536897147763
vn 0.9107713270898905 -0.007769127519348723 -0.4128380195773011
vn -0.5477687555045264 -0.6894743835379458 0.4738928834008717
vn -0.2834179588236984 -0.8889062055917549 -0.3598888971289291
vn -0.3177485231272382 0.9373067521044238 -0.14315002099166801
vn 0.5402271360552644 0.12276553092520893 -0.8325162255993445
vn -0.3637499399294757 -0.5423563996237871 -0.7573212772584867
vn -0.2652188456596462 0.9145593357293325 0.30535255908095277
vn -0.9826237495494227 -0.1356400838624773 -0.12669780768116495
vn -0.6485261539541243 -0.6534583788707984 0.390392078199622
vn -0.2939823038500894 -0.41832427139205136 0.8594063119312676
vn 0.3340092877274569 0.7610155215143066 -0.5561413235195751
vn -0.5602225692386312 -0.4045667670780578 0.722825292786352
vn -0.19405325087116673 -0.9245661058306385 -0.3279037233327808
vn -0.7551419649222265 -0.630379361791093 0.17995130741746032
vn -0.6920084716763953 -0.030293214030704098 0.7212534896357798
vn -0.890513526561055 0.3706316000788478 -0.26385199645783614
vn -0.691292971187301 -0.19956328599226048 0.6944699582206595
vn -0.052057110862544276 0.5094519364157114 0.8589230359531211
vn -0.7624607419205945 0.4365645837729742 -0.47756149470515985
vn -0.5353076313751373 0.7120404647673302 -0.4543612178932803
vn -0.7098128010096626 0.6688528512807895 0.22091095684998316
vn -0.580027139303936 -0.06509565964684641 -0.8119920398415458
vn -0.5433529093747546 0.7901322353776771 -0.28365236909122565
vn 0.30507131662380343 -0.1827533498263556 0.9346297153957093
vn -0.6754308385638859 0.6630612057647295 0.3227119764227992
vn -0.051471550924804085 0.04516057749713913 0.9976528462774615
vn 0.3504023233096081 0.7443221167204289 -0.568509277303413
vn -0.8832604743785053 -0.4605133459798469 0.08819519587315244
vn 0.5044510090654233 0.6556652428371558 -0.5618115954554249
vn -0.8569860813151418 0.07643329668561026 0.5096398802977322
vn -0.28724878503950835 -0.6160929090975457 -0.7334287033195863
vn -0.6568628645016126 0.23004226123472812 0.7180610943956991
vn -0.16873638418873066 -0.9558693219822183 -0.24050337200165725
vn -0.9841478042907694 -0.09990722860626702 -0.14653206127627014
vn -0.14467391581958677 -0.9891507173270992 -0.025501303745337576
vn -0.9046038589194623 0.3343567403792761 -0.26438121830221367
vn -0.8168422574064139 -0.553865730375909 0.16124974179934315
vn -0.20082989109827193 -0.4430964837448423 -0.873689224458224
vn 0.182754099003804 0.33001420125298775 -0.9261163891588682
vn 0.182754099003804 0.33001420125298775 -0.9261163891588682
vn -0.9740433647977312 -0.15154366688035062 -0.16814886417092234
vn -0.3009129426219115 0.6925288946452121 -0.6556333815815839
vn -0.26517969175773537 0.914540462951906 0.3054430760436149
vn -0.20093739438340882 -0.4436232835193537 -0.8733971295223687
vn 0.303067086473115 -0.685122963027225 -0.6623872482388932
vn -0.6974397303389561 -0.6992820504622204 0.1567878708512773
vn -0.40943615401470196 -0.5898001446531054 -0.6960587799552744
vn -0.28535822421004314 -0.916851115743986 -0.27920371672794486
vn -0.5829161604271158 -0.788741555874959 0.19518070588267208
vn 0.5406713247443867 0.10937137419783254 -0.8340937723692868
vn 0.20285435052723674 -0.10142958925155846 0.9739415541481086
vn 0.8278452395698549 -0.4142969369648659 0.37819347871566955
vn 0.503510283096589 0.6554537243044004 -0.5629012436577877
f 1//1 2//2 3//3
f 4//4 1//1 3//3
f 3//3 5//5 4//4
f 6//6 4//4 5//5
f 5//5 7//7 6//6
f 7//7 8//8 9//9
f 7//7 9//9 10//10
f 7//7 10//10 11//11
f 7//7 11//11 6//6
f 11//11 12//12 6//6
f 13//13 12//12 11//11
f 12//12 13//13 14//14
f 15//15 14//14 13//13
f 12//12 14//14 16//16
f 17//17 18//18 12//12
f 19//19 12//12 18//18
f 12//12 16//16 17//17
f 12//12 19//19 4//4
f 20//20 19//19 21//21
f 18//18 21//21 19//19
f 1//1 20//20 22//22
f 1//1 19//19 20//20
f 22//22 23//23 1//1
f 24//24 23//23 25//25
f 24//24 1//1 23//23
f 24//24 26//26 27//27
f 24//24 25//25 26//26
f 28//28 29//29 30//30
f 28//28 24//24 29//29
f 27//27 29//29 24//24
f 24//24 28//28 2//2
f 2//2 28//28 31//31
f 32//32 31//31 28//28
f 28//28 33//33 32//32
f 32//32 34//34 35//35
f 32//32 36//36 34//34
f 32//32 37//37 36//36
f 32//32 33//33 37//37
f 35//35 38//38 32//32
f 7//7 32//32 38//38
f 7//7 39//39 32//32
f 40//40 552//552 539//539
f 32//32 39//39 31//31
f 3//3 31//31 39//39
f 28//28 30//30 510//510
f 28//28 510//510 33//33
f 7//7 38//38 8//8
f 5//5 39//39 7//7
f 4//4 6//6 12//12
f 5//5 3//3 39//39
f 19//19 1//1 4//4
f 31//31 3//3 2//2
f 2//2 1//1 24//24
f 41//41 42//42 43//43
f 44//44 43//43 42//42
f 45//45 43//43 44//44
f 46//46 41//41 43//43
f 43//43 47//47 46//46
f 47//47 48//48 46//46
f 48//48 49//49 46//46
f 49//49 50//50 46//46
f 50//50 51//51 46//46
f 51//51 50//50 52//52
f 52//52 50//50 53//53
f 52//52 53//53 54//54
f 55//55 54//54 53//53
f 53//53 49//49 55//55
f 529//529 460//460 55//55
f 482//482 529//529 55//55
f 49//49 471//471 482//482
f 49//49 482//482 55//55
f 55//55 438//438 490//490
f 438//438 55//55 460//460
f 56//56 509//509 57//57
f 509//509 56//56 523//523
f 58//58 59//59 60//60
f 59//59 58//58 61//61
f 59//59 61//61 62//62
f 59//59 62//62 63//63
f 63//63 64//64 65//65
f 59//59 63//63 65//65
f 48//48 59//59 65//65
f 518//518 492//492 65//65
f 519//519 518//518 65//65
f 48//48 65//65 492//492
f 66//66 60//60 59//59
f 67//67 66//66 59//59
f 66//66 67//67 68//68
f 47//47 67//67 59//59
f 68//68 69//69 70//70
f 68//68 71//71 69//69
f 71//71 67//67 72//72
f 68//68 67//67 71//71
f 73//73 74//74 75//75
f 76//76 74//74 73//73
f 77//77 74//74 76//76
f 78//78 54//54 79//79
f 74//74 54//54 78//78
f 78//78 75//75 74//74
f 80//80 54//54 81//81
f 79//79 54//54 80//80
f 82//82 562//562 83//83
f 562//562 74//74 84//84
f 84//84 83//83 562//562
f 74//74 77//77 84//84
f 74//74 562//562 51//51
f 553//553 511//511 65//65
f 57//57 509//509 553//553
f 57//57 553//553 65//65
f 64//64 57//57 65//65
f 65//65 488//488 519//519
f 488//488 65//65 511//511
f 55//55 583//583 508//508
f 85//85 55//55 508//508
f 85//85 508//508 499//499
f 55//55 85//85 86//86
f 490//490 583//583 55//55
f 86//86 81//81 55//55
f 54//54 55//55 81//81
f 74//74 52//52 54//54
f 51//51 52//52 74//74
f 49//49 53//53 50//50
f 492//492 507//507 48//48
f 48//48 507//507 471//471
f 49//49 48//48 471//471
f 47//47 59//59 48//48
f 67//67 47//47 43//43
f 46//46 51//51 41//41
f 42//42 41//41 478//478
f 87//87 72//72 67//67
f 67//67 45//45 87//87
f 67//67 43//43 45//45
f 469//469 535//535 88//88
f 500//500 559//559 89//89
f 442//442 500//500 89//89
f 472//472 469//469 88//88
f 89//89 472//472 88//88
f 472//472 89//89 559//559
f 90//90 89//89 88//88
f 88//88 91//91 90//90
f 90//90 91//91 92//92
f 93//93 90//90 92//92
f 92//92 94//94 93//93
f 94//94 95//95 96//96
f 94//94 96//96 93//93
f 93//93 97//97 98//98
f 93//93 99//99 97//97
f 93//93 100//100 99//99
f 93//93 96//96 100//100
f 98//98 101//101 93//93
f 98//98 102//102 101//101
f 101//101 102//102 90//90
f 103//103 102//102 104//104
f 105//105 104//104 98//98
f 102//102 98//98 104//104
f 102//102 455//455 593//593
f 455//455 106//106 504//504
f 102//102 106//106 455//455
f 102//102 103//103 106//106
f 501//501 102//102 593//593
f 487//487 102//102 501//501
f 596//596 107//107 516//516
f 107//107 596//596 497//497
f 107//107 497//497 108//108
f 109//109 470//470 453//453
f 109//109 453//453 516//516
f 109//109 516//516 107//107
f 109//109 107//107 110//110
f 57//57 64//64 110//110
f 56//56 57//57 110//110
f 63//63 110//110 64//64
f 110//110 63//63 522//522
f 110//110 522//522 109//109
f 522//522 458//458 109//109
f 111//111 110//110 107//107
f 112//112 111//111 107//107
f 113//113 112//112 114//114
f 107//107 115//115 114//114
f 107//107 114//114 112//112
f 112//112 113//113 116//116
f 116//116 117//117 112//112
f 118//118 119//119 120//120
f 118//118 117//117 119//119
f 118//118 112//112 117//117
f 118//118 121//121 122//122
f 118//118 120//120 121//121
f 118//118 123//123 112//112
f 123//123 118//118 94//94
f 91//91 123//123 94//94
f 124//124 123//123 91//91
f 123//123 124//124 111//111
f 112//112 123//123 111//111
f 111//111 124//124 110//110
f 88//88 110//110 124//124
f 107//107 108//108 115//115
f 470//470 109//109 458//458
f 125//125 520//520 504//504
f 504//504 106//106 125//125
f 98//98 126//126 105//105
f 98//98 127//127 126//126
f 98//98 97//97 127//127
f 128//128 94//94 129//129
f 118//118 122//122 129//129
f 118//118 129//129 94//94
f 94//94 128//128 95//95
f 90//90 93//93 101//101
f 92//92 91//91 94//94
f 91//91 88//88 124//124
f 90//90 102//102 89//89
f 81//81 86//86 89//89
f 102//102 81//81 89//89
f 81//81 102//102 487//487
f 89//89 86//86 442//442
f 463//463 110//110 533//533
f 535//535 565//565 88//88
f 565//565 533//533 110//110
f 88//88 565//565 110//110
f 110//110 463//463 523//523
f 110//110 523//523 56//56
f 130//130 131//131 132//132
f 132//132 133//133 130//130
f 133//133 134//134 130//130
f 134//134 135//135 130//130
f 130//130 135//135 136//136
f 136//136 135//135 137//137
f 137//137 138//138 136//136
f 136//136 138//138 131//131
f 138//138 139//139 131//131
f 131//131 140//140 141//141
f 131//131 142//142 140//140
f 131//131 139//139 142//142
f 141//141 143//143 131//131
f 144//144 145//145 146//146
f 147//147 145//145 144//144
f 148//148 145//145 147//147
f 139//139 145//145 148//148
f 148//148 142//142 139//139
f 149//149 150//150 151//151
f 152//152 146//146 145//145
f 151//151 150//150 153//153
f 154//154 155//155 156//156
f 157//157 155//155 154//154
f 158//158 159//159 160//160
f 161//161 159//159 158//158
f 162//162 159//159 161//161
f 162//162 163//163 159//159
f 162//162 157//157 163//163
f 162//162 155//155 157//157
f 158//158 164//164 161//161
f 159//159 165//165 160//160
f 166//166 167//167 162//162
f 155//155 162//162 167//167
f 168//168 167//167 169//169
f 166//166 169//169 167//167
f 170//170 171//171 168//168
f 172//172 170//170 168//168
f 173//173 172//172 168//168
f 169//169 173//173 168//168
f 171//171 174//174 168//168
f 175//175 168//168 174//174
f 175//175 174//174 176//176
f 175//175 177//177 168//168
f 178//178 168//168 177//177
f 177//177 179//179 178//178
f 514//514 532//532 179//179
f 178//178 179//179 532//532
f 588//588 179//179 560//560
f 179//179 588//588 454//454
f 179//179 454//454 498//498
f 179//179 498//498 514//514
f 494//494 528//528 133//133
f 536//536 494//494 133//133
f 474//474 180//180 430//430
f 549//549 430//430 180//180
f 540//540 549//549 180//180
f 105//105 540//540 180//180
f 104//104 105//105 180//180
f 135//135 104//104 180//180
f 181//181 135//135 180//180
f 180//180 182//182 181//181
f 183//183 181//181 182//182
f 184//184 183//183 182//182
f 182//182 185//185 184//184
f 185//185 186//186 184//184
f 186//186 185//185 187//187
f 150//150 188//188 189//189
f 190//190 191//191 184//184
f 192//192 184//184 191//191
f 184//184 186//186 190//190
f 150//150 189//189 193//193
f 194//194 195//195 196//196
f 175//175 197//197 198//198
f 175//175 198//198 199//199
f 199//199 196//196 195//195
f 175//175 199//199 195//195
f 195//195 200//200 175//175
f 200//200 195//195 538//538
f 561//561 538//538 195//195
f 531//531 561//561 195//195
f 201//201 531//531 195//195
f 201//201 568//568 441//441
f 201//201 441//441 531//531
f 538//538 563//563 200//200
f 566//566 568//568 201//201
f 434//434 566//566 201//201
f 502//502 434//434 201//201
f 202//202 546//546 502//502
f 202//202 502//502 201//201
f 202//202 201//201 203//203
f 202//202 203//203 185//185
f 204//204 205//205 203//203
f 206//206 203//203 205//205
f 203//203 206//206 207//207
f 203//203 207//207 185//185
f 201//201 195//195 203//203
f 195//195 194//194 208//208
f 195//195 208//208 209//209
f 195//195 209//209 204//204
f 195//195 204//204 203//203
f 210//210 187//187 185//185
f 207//207 210//210 185//185
f 202//202 185//185 182//182
f 183//183 184//184 211//211
f 212//212 183//183 211//211
f 145//145 212//212 211//211
f 145//145 138//138 212//212
f 211//211 184//184 145//145
f 212//212 181//181 183//183
f 212//212 137//137 181//181
f 182//182 180//180 202//202
f 202//202 474//474 546//546
f 474//474 202//202 180//180
f 446//446 521//521 567//567
f 134//134 505//505 446//446
f 134//134 446//446 567//567
f 134//134 496//496 506//506
f 560//560 179//179 491//491
f 563//563 548//548 200//200
f 200//200 548//548 491//491
f 200//200 491//491 179//179
f 449//449 536//536 133//133
f 449//449 133//133 178//178
f 532//532 449//449 178//178
f 200//200 179//179 177//177
f 178//178 213//213 168//168
f 178//178 132//132 213//213
f 214//214 213//213 132//132
f 167//167 213//213 214//214
f 175//175 200//200 177//177
f 176//176 197//197 175//175
f 167//167 168//168 213//213
f 155//155 167//167 214//214
f 214//214 131//131 155//155
f 153//153 150//150 215//215
f 193//193 215//215 150//150
f 216//216 184//184 192//192
f 150//150 216//216 188//188
f 149//149 216//216 150//150
f 149//149 184//184 216//216
f 217//217 184//184 149//149
f 218//218 184//184 217//217
f 219//219 184//184 218//218
f 220//220 184//184 219//219
f 152//152 184//184 220//220
f 145//145 184//184 152//152
f 155//155 221//221 156//156
f 155//155 222//222 221//221
f 155//155 143//143 222//222
f 155//155 131//131 143//143
f 138//138 145//145 139//139
f 212//212 138//138 137//137
f 137//137 135//135 181//181
f 135//135 567//567 550//550
f 135//135 550//550 587//587
f 135//135 587//587 104//104
f 567//567 135//135 134//134
f 134//134 479//479 496//496
f 528//528 526//526 479//479
f 479//479 134//134 133//133
f 528//528 479//479 133//133
f 133//133 132//132 178//178
f 132//132 131//131 214//214
f 131//131 130//130 136//136
f 223//223 224//224 225//225
f 225//225 226//226 223//223
f 414//414 227//227 228//228
f 229//229 414//414 228//228
f 230//230 414//414 229//229
f 230//230 459//459 414//414
f 231//231 232//232 414//414
f 227//227 414//414 232//232
f 233//233 234//234 235//235
f 236//236 234//234 233//233
f 237//237 234//234 236//236
f 238//238 234//234 237//237
f 231//231 234//234 238//238
f 414//414 234//234 231//231
f 239//239 235//235 234//234
f 234//234 240//240 241//241
f 234//234 241//241 239//239
f 240//240 234//234 242//242
f 243//243 240//240 242//242
f 244//244 245//245 544//544
f 242//242 244//244 544//544
f 242//242 246//246 247//247
f 242//242 247//247 244//244
f 248//248 246//246 242//242
f 248//248 242//242 249//249
f 250//250 248//248 249//249
f 251//251 602//602 575//575
f 252//252 251//251 575//575
f 253//253 252//252 575//575
f 254//254 253//253 575//575
f 255//255 256//256 254//254
f 257//257 255//255 254//254
f 258//258 257//257 254//254
f 254//254 259//259 253//253
f 259//259 254//254 256//256
f 258//258 260//260 257//257
f 260//260 258//258 261//261
f 258//258 254//254 262//262
f 476//476 459//459 398//398
f 254//254 440//440 262//262
f 254//254 263//263 440//440
f 254//254 575//575 263//263
f 263//263 249//249 242//242
f 242//242 225//225 263//263
f 225//225 242//242 234//234
f 398//398 230//230 264//264
f 459//459 230//230 398//398
f 431//431 398//398 264//264
f 234//234 226//226 225//225
f 225//225 440//440 263//263
f 477//477 224//224 223//223
f 265//265 266//266 267//267
f 265//265 267//267 268//268
f 265//265 268//268 269//269
f 266//266 265//265 270//270
f 271//271 272//272 270//270
f 270//270 272//272 273//273
f 270//270 273//273 266//266
f 271//271 270//270 480//480
f 589//589 274//274 484//484
f 541//541 271//271 595//595
f 274//274 271//271 541//541
f 541//541 484//484 274//274
f 480//480 595//595 271//271
f 480//480 270//270 598//598
f 542//542 275//275 422//422
f 604//604 275//275 542//542
f 580//580 275//275 604//604
f 580//580 276//276 275//275
f 421//421 276//276 580//580
f 277//277 278//278 279//279
f 276//276 278//278 277//277
f 421//421 278//278 276//276
f 421//421 280//280 278//278
f 281//281 282//282 280//280
f 283//283 280//280 282//282
f 284//284 280//280 283//283
f 278//278 280//280 284//284
f 285//285 281//281 286//286
f 282//282 281//281 285//285
f 287//287 286//286 281//281
f 287//287 288//288 289//289
f 281//281 288//288 287//287
f 288//288 290//290 289//289
f 288//288 291//291 290//290
f 292//292 288//288 281//281
f 281//281 293//293 292//292
f 292//292 293//293 294//294
f 294//294 295//295 292//292
f 296//296 292//292 295//295
f 296//296 295//295 297//297
f 265//265 296//296 297//297
f 288//288 296//296 265//265
f 298//298 297//297 295//295
f 299//299 298//298 295//295
f 295//295 300//300 299//299
f 300//300 301//301 299//299
f 301//301 489//489 299//299
f 489//489 301//301 428//428
f 299//299 489//489 581//581
f 436//436 428//428 301//301
f 301//301 427//427 436//436
f 427//427 302//302 425//425
f 301//301 302//302 427//427
f 594//594 558//558 302//302
f 594//594 303//303 555//555
f 302//302 303//303 594//594
f 425//425 302//302 558//558
f 303//303 302//302 304//304
f 280//280 303//303 304//304
f 280//280 304//304 293//293
f 304//304 302//302 294//294
f 294//294 302//302 300//300
f 299//299 581//581 426//426
f 298//298 467//467 597//597
f 301//301 300//300 302//302
f 467//467 298//298 452//452
f 299//299 426//426 461//461
f 299//299 461//461 452//452
f 299//299 452//452 298//298
f 298//298 597//597 450//450
f 450//450 600//600 297//297
f 298//298 450//450 297//297
f 297//297 600//600 599//599
f 503//503 554//554 297//297
f 599//599 503//503 297//297
f 270//270 297//297 554//554
f 300//300 295//295 294//294
f 294//294 293//293 304//304
f 288//288 292//292 296//296
f 281//281 280//280 293//293
f 303//303 466//466 481//481
f 303//303 421//421 466//466
f 303//303 280//280 421//421
f 481//481 555//555 303//303
f 554//554 598//598 270//270
f 591//591 456//456 590//590
f 297//297 270//270 265//265
f 265//265 269//269 305//305
f 265//265 305//305 306//306
f 265//265 306//306 291//291
f 265//265 291//291 288//288
f 307//307 308//308 309//309
f 310//310 309//309 308//308
f 308//308 311//311 310//310
f 582//582 311//311 564//564
f 557//557 311//311 582//582
f 310//310 311//311 557//557
f 557//557 416//416 310//310
f 435//435 310//310 416//416
f 573//573 310//310 435//435
f 312//312 310//310 573//573
f 312//312 313//313 310//310
f 313//313 312//312 314//314
f 312//312 571//571 574//574
f 312//312 570//570 571//571
f 574//574 314//314 312//312
f 315//315 574//574 524//524
f 314//314 574//574 315//315
f 572//572 315//315 524//524
f 392//392 316//316 447//447
f 317//317 512//512 586//586
f 317//317 586//586 551//551
f 318//318 317//317 551//551
f 319//319 311//311 320//320
f 307//307 321//321 322//322
f 322//322 323//323 307//307
f 324//324 325//325 326//326
f 327//327 325//325 324//324
f 321//321 325//325 327//327
f 307//307 325//325 321//321
f 328//328 325//325 307//307
f 307//307 329//329 328//328
f 329//329 330//330 328//328
f 315//315 328//328 330//330
f 419//419 315//315 417//417
f 328//328 315//315 419//419
f 331//331 419//419 444//444
f 328//328 419//419 331//331
f 420//420 331//331 445//445
f 330//330 329//329 578//578
f 330//330 578//578 313//313
f 331//331 325//325 328//328
f 325//325 394//394 468//468
f 394//394 325//325 331//331
f 332//332 447//447 316//316
f 325//325 468//468 326//326
f 447//447 332//332 326//326
f 447//447 326//326 468//468
f 577//577 423//423 394//394
f 437//437 577//577 394//394
f 537//537 437//437 394//394
f 331//331 420//420 537//537
f 331//331 537//537 394//394
f 315//315 572//572 527//527
f 315//315 527//527 576//576
f 315//315 576//576 418//418
f 330//330 314//314 315//315
f 313//313 314//314 330//330
f 312//312 573//573 570//570
f 318//318 551//551 584//584
f 318//318 584//584 564//564
f 333//333 318//318 564//564
f 334//334 333//333 564//564
f 335//335 334//334 564//564
f 336//336 335//335 564//564
f 319//319 336//336 564//564
f 311//311 319//319 564//564
f 337//337 320//320 311//311
f 338//338 337//337 311//311
f 308//308 338//338 311//311
f 310//310 313//313 309//309
f 307//307 309//309 483//483
f 339//339 307//307 323//323
f 308//308 340//340 338//338
f 308//308 341//341 340//340
f 308//308 339//339 341//341
f 308//308 307//307 339//339
f 342//342 343//343 344//344
f 344//344 345//345 342//342
f 345//345 415//415 342//342
f 345//345 403//403 415//415
f 342//342 415//415 385//385
f 384//384 342//342 385//385
f 473//473 342//342 384//384
f 475//475 342//342 473//473
f 346//346 342//342 475//475
f 475//475 375//375 346//346
f 439//439 346//346 375//375
f 347//347 346//346 376//376
f 439//439 376//376 346//346
f 346//346 347//347 343//343
f 347//347 348//348 343//343
f 343//343 228//228 227//227
f 343//343 348//348 228//228
f 227//227 556//556 343//343
f 348//348 349//349 495//495
f 495//495 228//228 348//348
f 264//264 493//493 349//349
f 495//495 349//349 493//493
f 350//350 411//411 412//412
f 413//413 350//350 412//412
f 486//486 350//350 413//413
f 407//407 408//408 351//351
f 351//351 545//545 352//352
f 545//545 351//351 408//408
f 352//352 545//545 405//405
f 402//402 353//353 406//406
f 352//352 405//405 406//406
f 352//352 406//406 353//353
f 353//353 354//354 352//352
f 354//354 355//355 352//352
f 356//356 352//352 355//355
f 355//355 357//357 356//356
f 358//358 356//356 357//357
f 358//358 357//357 396//396
f 433//433 396//396 357//357
f 359//359 358//358 579//579
f 396//396 451//451 579//579
f 396//396 579//579 358//358
f 345//345 358//358 359//359
f 579//579 462//462 359//359
f 360//360 359//359 585//585
f 585//585 457//457 592//592
f 457//457 585//585 359//359
f 530//530 457//457 359//359
f 462//462 530//530 359//359
f 585//585 443//443 360//360
f 361//361 485//485 465//465
f 393//393 517//517 388//388
f 485//485 388//388 517//517
f 517//517 465//465 485//485
f 379//379 361//361 380//380
f 485//485 361//361 379//379
f 362//362 380//380 361//361
f 363//363 362//362 361//361
f 361//361 364//364 363//363
f 363//363 364//364 365//365
f 401//401 363//363 400//400
f 365//365 400//400 363//363
f 400//400 365//365 432//432
f 432//432 365//365 253//253
f 366//366 253//253 365//365
f 366//366 252//252 253//253
f 367//367 251//251 252//252
f 252//252 366//366 367//367
f 251//251 367//367 603//603
f 367//367 464//464 603//603
f 367//367 404//404 464//464
f 367//367 353//353 404//404
f 366//366 368//368 367//367
f 367//367 368//368 354//354
f 368//368 369//369 354//354
f 389//389 547//547 368//368
f 368//368 387//387 369//369
f 387//387 368//368 547//547
f 387//387 543//543 369//369
f 390//390 370//370 525//525
f 534//534 525//525 370//370
f 515//515 534//534 370//370
f 364//364 515//515 370//370
f 364//364 370//370 366//366
f 390//390 389//389 368//368
f 370//370 390//390 368//368
f 368//368 366//366 370//370
f 365//365 364//364 366//366
f 569//569 391//391 364//364
f 361//361 569//569 364//364
f 515//515 364//364 391//391
f 362//362 363//363 371//371
f 372//372 362//362 371//371
f 349//349 372//372 371//371
f 349//349 347//347 372//372
f 371//371 363//363 349//349
f 380//380 362//362 429//429
f 372//372 429//429 362//362
f 383//383 372//372 382//382
f 429//429 372//372 383//383
f 361//361 465//465 569//569
f 386//386 443//443 513//513
f 448//448 360//360 386//386
f 360//360 448//448 377//377
f 443//443 386//386 360//360
f 359//359 360//360 378//378
f 359//359 378//378 410//410
f 433//433 357//357 395//395
f 543//543 395//395 357//357
f 369//369 543//543 357//357
f 345//345 356//356 358//358
f 369//369 357//357 355//355
f 356//356 373//373 352//352
f 356//356 344//344 373//373
f 374//374 373//373 344//344
f 351//351 373//373 374//374
f 354//354 369//369 355//355
f 367//367 354//354 353//353
f 402//402 404//404 353//353
f 351//351 352//352 373//373
f 351//351 409//409 407//407
f 351//351 374//374 409//409
f 424//424 409//409 374//374
f 374//374 486//486 424//424
f 374//374 350//350 486//486
f 374//374 343//343 350//350
f 399//399 363//363 401//401
f 397//397 363//363 399//399
f 431//431 363//363 397//397
f 264//264 363//363 431//431
f 349//349 363//363 264//264
f 350//350 601//601 411//411
f 601//601 343//343 556//556
f 350//350 343//343 601//601
f 347//347 349//349 348//348
f 372//372 381//381 382//382
f 372//372 376//376 381//381
f 347//347 376//376 372//372
f 359//359 410//410 403//403
f 359//359 403//403 345//345
f 345//345 344//344 356//356
f 344//344 343//343 374//374
f 343//343 342//342 346//346
