o Object_2
v 9.634702682495117 6.087773799896252 -52.17045593261719
v 9.918702125549316 2.603773832321178 -50.89445495605469
v 9.428702354431152 4.099773883819591 -48.082454681396484
v 9.712702751159668 7.175773620605479 -48.044456481933594
v 11.950702667236328 6.091773986816416 -45.15845489501953
v 13.342702865600586 9.073774337768565 -46.35645294189453
v 15.768702507019043 5.537773609161387 -45.27445602416992
v 16.278701782226562 6.181773662567148 -45.814453125
v 15.85470199584961 6.659773826599131 -45.92445373535156
v 15.830702781677246 7.077774047851573 -46.14845275878906
v 15.7547025680542 8.169774055480968 -46.724456787109375
v 13.068702697753906 9.975774765014659 -49.25245666503906
v 15.85670280456543 8.413774490356456 -47.77445602416992
v 15.416702270507812 9.557774543762218 -49.67045593261719
v 15.928703308105469 9.083774566650401 -49.05245590209961
v 13.9447021484375 9.651774406433116 -51.04645538330078
v 13.702702522277832 9.55177402496339 -51.236454010009766
v 13.04670238494873 9.177774429321301 -52.11445617675781
v 11.302701950073242 8.98177433013917 -51.5804557800293
v 13.100702285766602 7.491774082183849 -53.396453857421875
v 12.940702438354492 8.88577461242677 -52.292457580566406
v 13.1947021484375 6.655773639678967 -53.89445495605469
v 13.32070255279541 5.463773727417005 -54.02645492553711
v 12.376702308654785 3.0797739028930784 -53.70045471191406
v 13.370702743530273 5.397773742675794 -54.0544548034668
v 14.014702796936035 4.389773845672619 -53.836456298828125
v 14.878702163696289 3.3117740154266477 -53.59245300292969
v 13.846702575683594 0.7357737421989555 -51.314453125
v 15.110702514648438 2.987773895263684 -53.26045608520508
v 15.752702713012695 2.7117738723755 -52.91845703125
v 12.002702713012695 0.7477737069130053 -48.828453063964844
v 16.234703063964844 1.7697737216949567 -47.34845733642578
v 17.570701599121094 2.259773731231701 -51.076454162597656
v 17.776702880859375 3.1977739334106556 -50.018455505371094
v 17.62670135498047 3.901773929595958 -48.16845703125
v 17.71870231628418 2.919773817062389 -50.34445571899414
v 17.690702438354492 2.617773771286022 -50.81845474243164
v 16.69870376586914 5.5097737312317 -46.40845489501953
v 13.076702117919922 2.5877737998962504 -45.758453369140625
v 17.420703887939453 2.4237737655639764 -51.41045379638672
v 26.218704223632812 11.601774215698256 -62.48645782470703
v 27.40070343017578 10.54577445983888 -59.878456115722656
v 27.482704162597656 4.81177377700807 -61.224456787109375
v 27.750701904296875 7.719773769378675 -59.78645324707031
v 28.410701751708984 5.865773677825941 -58.66845703125
v 21.46670150756836 6.031773567199721 -64.07845306396484
v 22.882701873779297 1.569773674011244 -61.0904541015625
v 16.39670181274414 2.1637737751007213 -59.12245559692383
v 13.234703063964844 7.081773757934584 -60.116455078125
v 15.948702812194824 11.657774925231948 -62.262454986572266
v 20.95470428466797 12.841774940490737 -63.430458068847656
v 18.81070327758789 15.973774909973157 -58.61045837402344
v 13.758703231811523 12.89777469635011 -57.52445602416992
v 17.690702438354492 15.92177486419679 -53.496456146240234
v 12.802701950073242 10.217774391174329 -52.27245330810547
v 17.798702239990234 3.167773962020885 -50.02645492553711
v 18.830703735351562 2.3857738971710316 -49.836456298828125
v 21.938701629638672 0.9617737531662104 -52.56645584106445
v 22.35870361328125 -0.00022633672050371734 -55.198455810546875
v 24.526702880859375 1.6957737207412837 -53.250457763671875
v 21.714702606201172 0.9317737221717951 -52.43045425415039
v 21.530702590942383 0.9417737126350518 -52.23445510864258
v 20.912702560424805 1.1617736816406363 -51.154457092285156
v 19.878704071044922 1.6137737035751454 -49.74845504760742
v 17.088703155517578 0.7137737274170043 -54.28245544433594
v 25.612701416015625 2.0137739181518675 -53.55245590209961
v 26.840702056884766 1.5217736959457522 -55.93645477294922
v 27.276702880859375 2.7117738723755003 -53.512454986572266
v 27.696704864501953 3.2557737827301145 -54.63245391845703
v 27.718704223632812 3.3997738361358762 -54.02245330810547
v 27.76470184326172 3.309773921966565 -55.00645446777344
v 27.852703094482422 3.4237740039825564 -55.22845458984375
v 24.42870330810547 15.387774467468274 -55.076454162597656
v 23.614704132080078 16.189773559570327 -57.77245330810546
v 24.414703369140625 15.395774841308606 -55.06245422363281
v 25.076702117919922 15.037775039672864 -55.27445602416992
v 25.792701721191406 14.929774284362805 -57.77445602416992
v 19.972702026367188 15.495774269104016 -53.04845428466797
v 19.674701690673828 15.47577476501466 -52.80245590209961
v 18.78870391845703 15.217774391174329 -52.22245407104492
v 17.700702667236328 14.397774696350108 -50.534454345703125
v 27.26470184326172 12.563774108886733 -60.09245300292969
v 26.498703002929688 13.543774604797376 -59.27045440673828
v 25.738704681396484 14.36177444458009 -58.69045639038086
v 15.708702087402344 11.603774070739757 -50.050453186035156
v 16.26270294189453 12.549774169921886 -49.84445571899414
v 28.218704223632812 5.045773506164563 -57.542457580566406
v 15.802701950073242 6.8057737350463965 -45.628456115722656
v 15.252702713012695 12.301774978637706 -47.25245666503906
v 17.42870330810547 12.979774475097665 -43.52045440673828
v 19.924701690673828 8.455774307250985 -39.95645523071289
v 21.192703247070312 12.397774696350107 -39.94245529174805
v 23.208702087402344 16.149774551391612 -42.04445648193359
v 25.912704467773438 11.259774208068857 -39.604454040527344
v 29.506702423095703 12.755774497985849 -42.25245666503906
v 28.962703704833984 14.021774291992196 -42.95245361328125
v 26.802703857421875 17.097774505615245 -46.69645690917968
v 25.352703094482422 18.44777297973634 -47.92645645141601
v 26.982704162597656 16.369773864746104 -45.536453247070305
v 27.83670425415039 15.147774696350108 -44.04645538330078
v 20.080703735351562 17.58577346801759 -47.05445480346679
v 19.390703201293945 16.257774353027354 -51.976455688476555
v 25.590702056884766 17.01377296447755 -53.82045745849609
v 25.24470329284668 17.349773406982433 -52.21245574951171
v 25.65070343017578 17.655773162841808 -51.31445312499999
v 25.570701599121094 16.69777297973634 -54.15245819091796
v 26.622703552246094 0.461773663759243 -51.48445510864258
v 27.92670440673828 3.1857738494873167 -53.70445251464844
v 21.818702697753906 0.7497737407684443 -52.30845642089844
v 20.69870376586914 0.49177366495133495 -47.20045471191406
v 26.618701934814453 1.0597736835479834 -44.0544548034668
v 30.800704956054688 3.64777398109437 -44.534454345703125
v 30.898704528808594 3.613773822784434 -45.900455474853516
v 29.20470428466797 2.187773942947399 -50.65845489501953
v 29.128704071044922 2.085773944854748 -51.39845657348633
v 31.118701934814453 4.247773647308359 -44.57245635986328
v 31.102703094482422 4.293773651123057 -44.52245330810547
v 29.692703247070312 7.5117740631103604 -40.71845626831055
v 31.202701568603516 7.143774032592783 -42.88645553588867
v 31.248703002929688 7.721774101257334 -42.5904541015625
v 31.062702178955078 8.133774757385263 -42.45245361328125
v 30.2467041015625 10.257774353027353 -41.91645431518555
v 24.69670295715332 4.733773708343515 -40.13645553588867
v 20.710702896118164 2.8977739810943697 -42.396453857421875
v 25.44870376586914 15.999773979187024 -54.620452880859375
v 26.270702362060547 17.97577476501466 -48.744453430175774
v 26.570701599121094 17.99777412414552 -48.15045547485351
v 29.54470443725586 12.12577438354493 -42.078453063964844
v 29.976703643798828 10.68577480316163 -41.88845443725586
v 32.92870330810547 14.387774467468276 -64.42845153808594
v 39.7567024230957 15.601775169372573 -64.10245513916016
v 35.956703186035156 6.099773883819594 -63.53045654296875
v 29.33270263671875 7.757773876190199 -61.8924560546875
v 26.888702392578125 15.505774497985854 -60.172454833984375
v 27.44870376586914 20.101774215698256 -56.27245330810546
v 34.0587043762207 19.40577316284181 -62.70245361328124
v 32.3827018737793 23.053773880004897 -57.684455871582024
v 38.49470520019531 22.625774383544936 -59.53045654296874
v 43.17070388793945 20.15777397155763 -59.864456176757805
v 42.72670364379883 18.781774520874038 -60.76245498657226
v 42.57670593261719 16.053773880004897 -62.06445312499999
v 43.370704650878906 19.831773757934585 -59.87845611572265
v 42.850704193115234 15.555774688720717 -62.104454040527344
v 44.47470474243164 20.803773880004897 -56.07845306396484
v 44.46870422363281 21.595773696899425 -54.9904556274414
v 44.67070388793945 20.797773361206065 -55.658454895019524
v 43.90670394897461 20.623773574829116 -57.58645629882812
v 43.376705169677734 19.95577430725099 -59.6884536743164
v 48.21470642089844 16.525774002075206 -50.748455047607415
v 48.34070587158203 16.35377311706544 -50.60445404052734
v 48.3087043762207 16.341773986816417 -50.73445510864257
v 45.19870376586914 20.60777473449708 -54.16445541381835
v 48.354705810546875 16.237773895263683 -50.72845458984374
v 45.2467041015625 10.571774482727065 -60.742454528808594
v 44.562705993652344 9.35377407073976 -61.8044548034668
v 45.014705657958984 11.293774604797377 -61.258453369140625
v 45.75070571899414 10.243774414062512 -59.792457580566406
v 47.2627067565918 7.457773685455335 -55.61445617675781
v 46.97670364379883 9.329774856567395 -56.958457946777344
v 47.40870666503906 8.797774314880384 -55.87445831298828
v 47.19270324707031 6.489773750305188 -55.35645294189453
v 47.194705963134766 6.425773620605481 -55.32445526123047
v 46.008705139160156 10.047774314880384 -59.1944580078125
v 47.306705474853516 6.757773876190198 -55.23845672607422
v 47.8087043762207 9.687774658203137 -55.44245529174805
v 47.168704986572266 6.307773590087903 -55.258453369140625
v 44.05070495605469 2.9937739372253547 -57.012454986572266
v 39.918704986572266 0.025773663073790122 -53.90245819091797
v 47.052703857421875 6.2197737693786745 -55.188453674316406
v 43.07270431518555 2.267773866653454 -51.33445739746094
v 43.07070541381836 2.265773773193371 -51.32245635986328
v 43.626705169677734 2.9357738494873162 -52.61045455932617
v 44.35670471191406 3.6517739295959593 -53.262454986572266
v 40.208702087402344 1.659773707389842 -47.396453857421875
v 39.47470474243164 1.4777736663818464 -46.50245666503906
v 40.216705322265625 1.7897737026214704 -46.84245300292969
v 33.70070266723633 -0.000226336720504856 -50.070457458496094
v 33.12470245361328 1.0677736997604497 -57.41645812988281
v 29.584701538085938 1.4557737112045401 -51.25245666503906
v 28.296703338623047 19.78377342224122 -46.540454864501946
v 30.828704833984375 23.33577346801759 -50.46845626831054
v 34.96470260620117 21.433774948120128 -43.84245300292968
v 37.65270233154297 24.287775039672862 -48.848457336425774
v 44.440704345703125 19.78777313232423 -46.454456329345696
v 40.02470397949219 16.79177474975587 -41.434455871582024
v 45.07670593261719 17.72377395629884 -45.454456329345696
v 42.8087043762207 16.209774017333995 -42.89245605468749
v 47.850704193115234 16.785774230957042 -50.08245468139648
v 48.21470642089844 16.317773818969737 -50.3024559020996
v 45.25670623779297 18.001773834228526 -46.13445281982421
v 46.302703857421875 17.751773834228526 -47.99245452880859
v 47.81470489501953 16.817773818969737 -50.0424575805664
v 48.32670593261719 16.093772888183604 -50.46245574951171
v 38.4447021484375 7.17777395248414 -41.496456146240234
v 36.930702209472656 6.337773799896249 -41.32045364379883
v 38.414703369140625 6.225773811340342 -42.04245376586914
v 40.094703674316406 2.0117738246917827 -46.314453125
v 39.07670211791992 3.09377384185792 -44.96845626831055
v 38.21870422363281 4.539773941040049 -43.38445281982422
v 31.658702850341797 3.909773826599131 -44.306453704833984
v 30.620704650878906 11.259774208068857 -41.082454681396484
v 32.29670333862305 16.47377395629884 -41.062454223632805
v 37.052703857421875 13.145774841308603 -39.794456481933594
v 39.17670440673828 12.119774818420419 -40.54645538330078
v 39.272705078125 13.111774444580087 -40.70045471191406
v 39.396705627441406 13.317774772644052 -40.77445602416992
v 41.06270217895508 14.791774749755868 -41.6264533996582
v 38.36870193481445 8.007774353027353 -41.288455963134766
v 38.24070358276367 9.005774497985849 -41.03045654296875
v 42.0847053527832 15.839775085449228 -42.41045379638672
v 42.99070358276367 22.97177505493165 -50.44445419311523
v 37.94670486450195 24.663774490356456 -54.39445495605468
v 39.04070281982422 1.3457736968994272 -58.75445556640625
v 41.27470397949219 6.389773845672622 -62.560455322265625
v 48.35270690917969 15.861774444580089 -50.71045684814453
v 47.832706451416016 16.805774688720714 -50.07645416259765
v 47.45670700073242 17.381772994995128 -50.82645416259765
v 45.664703369140625 19.69577407836915 -52.32845306396484
v 45.54470443725586 19.893774032592784 -52.63045501708984
v 45.232704162597656 20.509773254394542 -53.890457153320305
v 45.008705139160156 11.30177497863771 -61.262454986572266
v 43.20270538330078 14.319774627685561 -62.03645324707031
v 64.83270263671875 9.945774078369153 -59.1944580078125
v 68.07870483398438 6.393774032592786 -54.48245620727539
v 66.14270782470703 3.289773941040052 -58.72245788574219
v 62.47470474243164 7.989773750305189 -61.078453063964844
v 60.47270584106445 9.64777469635011 -59.05845642089844
v 60.510704040527344 9.689774513244641 -59.01445770263672
v 60.45270538330078 10.139774322509778 -58.518455505371094
v 60.39070510864258 10.493774414062512 -58.12645721435547
v 59.81470489501953 7.565773963928236 -59.792457580566406
v 60.46470642089844 9.539774894714368 -59.11045837402344
v 59.69670486450195 5.445773601531996 -59.858455657958984
v 60.57270431518555 3.553773880004896 -60.404457092285156
v 59.358707427978516 4.885773658752455 -59.72645568847656
v 59.80070495605469 5.663773536682142 -59.896453857421875
v 59.832706451416016 5.8337736129760875 -59.90245819091797
v 59.88470458984375 6.447773933410658 -59.8924560546875
v 59.05470657348633 3.2597739696502814 -58.67045593261719
v 59.61270523071289 2.0597739219665656 -57.02645492553711
v 59.45670700073242 2.467773914337171 -57.61445617675781
v 61.22870635986328 0.749773740768445 -56.050453186035156
v 59.3347053527832 1.925773739814771 -56.56845474243164
v 59.6107063293457 2.305773735046399 -55.130455017089844
v 59.41070556640625 2.2257738113403445 -55.688453674316406
v 60.514705657958984 2.9697737693786737 -52.258453369140625
v 60.482704162597656 2.689773797988903 -52.93045425415039
v 60.39070510864258 3.387773990631115 -51.52845764160156
v 61.41270446777344 2.9657738208770863 -50.878456115722656
v 60.75070571899414 5.021773815155041 -50.52645492553711
v 60.77070617675781 5.061773777008068 -50.52645492553711
v 61.18070602416992 6.435773849487316 -50.47845458984375
v 61.14470672607422 7.273773670196545 -50.38645553588867
v 65.60070037841797 7.715774059295666 -51.31645584106445
v 61.604705810546875 10.44377422332765 -52.73245620727539
v 61.70470428466797 9.957774162292493 -52.396453857421875
v 61.370704650878906 10.743774414062512 -52.91645431518555
v 61.566707611083984 11.281774520874036 -53.332454681396484
v 61.36470413208008 7.577774047851574 -50.63645553588867
v 61.194705963134766 11.031774520874036 -53.358455657958984
v 61.200706481933594 11.177774429321301 -54.060455322265625
v 65.8987045288086 11.023774147033704 -55.870452880859375
v 65.1987075805664 1.9837737083435176 -52.78645324707031
v 61.226707458496094 11.161774635314954 -54.128456115722656
v 48.620704650878906 0.541773736476909 -48.578453063964844
v 48.71470642089844 4.003773689270031 -52.128456115722656
v 48.760704040527344 3.9277739524841424 -52.02445602416992
v 49.12870407104492 3.5577738285064813 -51.438453674316406
v 50.5327033996582 3.057773828506481 -50.1524543762207
v 44.562705993652344 2.323773860931408 -52.6424560546875
v 47.396705627441406 6.201773643493665 -55.258453369140625
v 47.38470458984375 5.779773712158216 -54.80845642089844
v 48.30470657348633 4.659773826599133 -53.07245635986328
v 47.38270568847656 6.39577388763429 -55.352455139160156
v 49.062705993652344 15.365775108337413 -50.6524543762207
v 50.02870559692383 14.537775039672862 -50.75045394897461
v 50.54670715332031 13.523774147033702 -51.466453552246094
v 51.694705963134766 13.195775032043468 -50.82245635986328
v 50.6107063293457 13.221775054931651 -51.76045608520508
v 51.81870651245117 15.983775138854991 -47.470455169677734
v 54.61670684814453 10.249774932861339 -46.95045471191406
v 54.306705474853516 10.399774551391612 -47.53645324707031
v 53.20870590209961 12.04177474975587 -48.406455993652344
v 52.354705810546875 12.81577491760255 -49.63645553588867
v 54.36470413208008 10.219774246215831 -47.44045639038086
v 54.44870376586914 9.89177417755128 -47.3044548034668
v 54.20470428466797 8.711774826049815 -46.794456481933594
v 52.68070602416992 2.9737739562988383 -46.14845275878906
v 53.92670440673828 7.7377738952636825 -46.79045486450195
v 53.13470458984375 5.373773574829112 -47.42045593261719
v 52.56470489501953 3.955773830413829 -48.306453704833984
v 52.15870666503906 4.80177354812623 -41.28245544433594
v 53.470706939697266 12.167774200439462 -42.73245620727539
v 50.1107063293457 8.925774574279794 -38.3924560546875
v 45.482704162597656 3.2537739276886075 -39.08845520019531
v 47.6107063293457 0.6997737288475131 -42.556453704833984
v 43.17870330810547 0.03377366438509035 -45.09245300292969
v 38.824703216552734 3.995774030685434 -42.06645584106445
v 38.738704681396484 8.441774368286142 -40.108455657958984
v 44.7827033996582 8.347774505615243 -37.22645568847656
v 39.37870407104492 13.189774513244638 -40.564453125
v 43.530704498291016 15.577775001525888 -40.37245559692383
v 45.966705322265625 18.231773376464854 -46.204456329345696
v 50.014705657958984 15.72177505493165 -41.99445343017578
v 50.8087043762207 3.0797739028930775 -49.70845413208008
v 51.64470672607422 3.4177739620208847 -48.88445281982422
v 55.14470672607422 15.389774322509778 -56.1944580078125
v 52.90670394897461 12.71777439117433 -62.176456451416016
v 51.90470504760742 18.04377365112306 -63.32045745849609
v 48.146705627441406 13.61777496337892 -64.42845153808594
v 49.27670669555664 10.16377449035646 -61.97845458984375
v 43.80070495605469 18.09777450561525 -63.10245513916015
v 47.7467041015625 19.00377464294435 -64.0704574584961
v 46.07670593261719 21.583774566650405 -60.33045578002929
v 45.21470642089844 21.65977478027345 -56.2924575805664
v 50.940704345703125 13.385774612426768 -51.76445388793945
v 48.034706115722656 9.179774284362805 -57.1424560546875
v 48.26670455932617 9.273774147033704 -57.70245361328125
v 49.04670333862305 9.511774063110364 -59.208457946777344
v 51.07670593261719 10.209774017333997 -59.65845489501953
v 54.850704193115234 14.953774452209485 -55.77845764160156
v 54.86470413208008 14.935774803161634 -55.99845504760742
v 54.81670379638672 14.7717742919922 -56.404457092285156
v 52.9607048034668 14.583774566650403 -52.71845626831055
v 52.338706970214844 16.599773406982433 -51.37845611572265
v 52.82270431518555 14.459774971008313 -52.512454986572266
v 54.21470642089844 14.895774841308606 -54.73845672607422
v 51.54670715332031 20.295774459838878 -54.07845306396484
v 53.5487060546875 19.643774032592788 -59.65645599365234
v 49.86870574951172 21.7717742919922 -59.69445800781249
v 48.398704528808594 18.53777313232423 -50.83645629882812
v 51.91070556640625 14.05777454376222 -52.102455139160156
v 48.832706451416016 9.511774063110364 -59.05645751953125
v 48.84870529174805 9.513774871826184 -59.076454162597656
v 48.85870361328125 9.515774726867688 -59.08845520019531
v 48.95470428466797 9.515774726867688 -59.156455993652344
v 51.190704345703125 10.281774520874036 -59.650455474853516
v 52.690704345703125 11.61777496337892 -60.288455963134766
v 54.18670654296875 14.037775039672864 -58.14445495605469
v 52.86470413208008 11.973774909973159 -60.25245666503906
v 53.07270431518555 12.347774505615249 -60.06845474243164
v 52.56670379638672 8.845774650573745 -61.70245361328125
v 56.76670455932617 9.59177398681642 -61.50245666503906
v 54.428707122802734 3.7497739791870255 -61.150455474853516
v 50.35670471191406 4.769773960113539 -60.1424560546875
v 53.2627067565918 11.931774139404311 -60.64045715332031
v 55.99070739746094 13.911774635314954 -58.69045639038086
v 58.86670684814453 12.395774841308606 -58.89445495605469
v 59.66470718383789 13.277774810791028 -55.89845275878906
v 59.72270584106445 5.749773979187025 -60.08845520019531
v 59.40670394897461 1.8417737483978398 -57.14045715332031
v 56.86670684814453 0.015773663297307835 -55.23045349121094
v 60.33070755004883 2.4757738113403436 -52.39445495605469
v 56.59270477294922 0.9077737331390493 -50.68045425415039
v 53.04270553588867 -0.0022263368591548816 -52.874454498291016
v 52.68870544433594 0.6557736992836126 -57.39045715332031
v 50.5127067565918 0.8957737088203549 -53.60045623779297
v 49.25670623779297 2.0917737483978396 -55.84645462036133
v 47.898704528808594 4.711773872375501 -56.86845397949219
v 47.440704345703125 8.125774383544934 -57.26045608520508
v 53.82070541381836 13.179774284362804 -49.044456481933594
v 55.47270584106445 14.93377494812013 -52.12245559692383
v 59.646705627441406 12.16577434539796 -50.650455474853516
v 56.93270492553711 10.32577419281007 -47.56245422363281
v 60.440704345703125 9.591773986816417 -49.400455474853516
v 59.09270477294922 6.153773784637462 -47.966453552246094
v 59.65670394897461 3.547773838043224 -49.746456146240234
v 55.02870559692383 3.895773887634288 -47.492454528808594
v 51.786705017089844 2.4037737846374623 -49.328453063964844
v 55.10270690917969 8.083774566650401 -46.5544548034668
v 58.75470733642578 14.12377452850343 -53.104454040527344
v 55.652706146240234 15.165774345397962 -55.53245544433594
v 56.32470703125 0.8277737498283515 -58.21245574951172
v 57.700706481933594 3.927773952484144 -60.55245590209961
v 52.86470413208008 11.973774909973159 -60.25245666503906
v 54.18670654296875 14.037775039672864 -58.14445495605469
v 48.832706451416016 9.511774063110364 -59.05645751953125
v 48.832706451416016 9.511774063110364 -59.05645751953125
v 52.82270431518555 14.459774971008313 -52.512454986572266
v 52.9607048034668 14.583774566650403 -52.71845626831055
v 54.81670379638672 14.7717742919922 -56.404457092285156
v 54.86470413208008 14.935774803161634 -55.99845504760742
v 54.850704193115234 14.953774452209485 -55.77845764160156
v 51.07670593261719 10.209774017333997 -59.65845489501953
v 49.04670333862305 9.511774063110364 -59.208457946777344
v 48.034706115722656 9.179774284362805 -57.1424560546875
v 51.64470672607422 3.4177739620208847 -48.88445281982422
v 50.940704345703125 13.385774612426768 -51.76445388793945
v 53.13470458984375 5.373773574829112 -47.42045593261719
v 53.92670440673828 7.7377738952636825 -46.79045486450195
v 54.306705474853516 10.399774551391612 -47.53645324707031
v 50.6107063293457 13.221775054931651 -51.76045608520508
v 50.6107063293457 13.221775054931651 -51.76045608520508
v 49.062705993652344 15.365775108337413 -50.6524543762207
v 50.5327033996582 3.057773828506481 -50.1524543762207
v 48.760704040527344 3.9277739524841424 -52.02445602416992
v 61.194705963134766 11.031774520874036 -53.358455657958984
v 61.566707611083984 11.281774520874036 -53.332454681396484
v 61.370704650878906 10.743774414062512 -52.91645431518555
v 61.70470428466797 9.957774162292493 -52.396453857421875
v 61.604705810546875 10.44377422332765 -52.73245620727539
v 60.482704162597656 2.689773797988903 -52.93045425415039
v 48.85870361328125 9.515774726867688 -59.08845520019531
v 60.514705657958984 2.9697737693786737 -52.258453369140625
v 59.41070556640625 2.2257738113403445 -55.688453674316406
v 59.6107063293457 2.305773735046399 -55.130455017089844
v 59.45670700073242 2.467773914337171 -57.61445617675781
v 59.61270523071289 2.0597739219665656 -57.02645492553711
v 59.05470657348633 3.2597739696502814 -58.67045593261719
v 48.84870529174805 9.513774871826184 -59.076454162597656
v 59.88470458984375 6.447773933410658 -59.8924560546875
v 59.832706451416016 5.8337736129760875 -59.90245819091797
v 59.80070495605469 5.663773536682142 -59.896453857421875
v 62.47470474243164 7.989773750305189 -61.078453063964844
v 48.95470428466797 9.515774726867688 -59.156455993652344
v 43.20270538330078 14.319774627685561 -62.03645324707031
v 45.232704162597656 20.509773254394542 -53.890457153320305
v 45.232704162597656 20.509773254394542 -53.890457153320305
v 45.54470443725586 19.893774032592784 -52.63045501708984
v 47.45670700073242 17.381772994995128 -50.82645416259765
v 47.832706451416016 16.805774688720714 -50.07645416259765
v 48.35270690917969 15.861774444580089 -50.71045684814453
v 48.35270690917969 15.861774444580089 -50.71045684814453
v 59.358707427978516 4.885773658752455 -59.72645568847656
v 42.0847053527832 15.839775085449228 -42.41045379638672
v 38.36870193481445 8.007774353027353 -41.288455963134766
v 41.06270217895508 14.791774749755868 -41.6264533996582
v 39.272705078125 13.111774444580087 -40.70045471191406
v 54.21470642089844 14.895774841308606 -54.73845672607422
v 26.802703857421875 17.097774505615245 -46.69645690917968
v 61.200706481933594 11.177774429321301 -54.060455322265625
v 61.36470413208008 7.577774047851574 -50.63645553588867
v 49.12870407104492 3.5577738285064813 -51.438453674316406
v 29.506702423095703 12.755774497985849 -42.25245666503906
v 42.850704193115234 15.555774688720717 -62.104454040527344
v 39.396705627441406 13.317774772644052 -40.77445602416992
v 48.3087043762207 16.341773986816417 -50.73445510864257
v 13.04670238494873 9.177774429321301 -52.11445617675781
v 53.07270431518555 12.347774505615249 -60.06845474243164
v 68.07870483398438 6.393774032592786 -54.48245620727539
v 30.2467041015625 10.257774353027353 -41.91645431518555
v 15.708702087402344 11.603774070739757 -50.050453186035156
v 47.40870666503906 8.797774314880384 -55.87445831298828
v 45.664703369140625 19.69577407836915 -52.32845306396484
v 45.664703369140625 19.69577407836915 -52.32845306396484
v 25.792701721191406 14.929774284362805 -57.77445602416992
v 50.54670715332031 13.523774147033702 -51.466453552246094
v 48.26670455932617 9.273774147033704 -57.70245361328125
v 27.852703094482422 3.4237740039825564 -55.22845458984375
v 40.094703674316406 2.0117738246917827 -46.314453125
v 48.71470642089844 4.003773689270031 -52.128456115722656
v 38.414703369140625 6.225773811340342 -42.04245376586914
v 24.526702880859375 1.6957737207412837 -53.250457763671875
v 27.92670440673828 3.1857738494873167 -53.70445251464844
v 24.414703369140625 15.395774841308606 -55.06245422363281
v 47.38270568847656 6.39577388763429 -55.352455139160156
v 47.38270568847656 6.39577388763429 -55.352455139160156
v 21.714702606201172 0.9317737221717951 -52.43045425415039
v 64.83270263671875 9.945774078369153 -59.1944580078125
v 12.940702438354492 8.88577461242677 -52.292457580566406
v 38.4447021484375 7.17777395248414 -41.496456146240234
v 47.38470458984375 5.779773712158216 -54.80845642089844
v 17.62670135498047 3.901773929595958 -48.16845703125
v 60.39070510864258 3.387773990631115 -51.52845764160156
v 52.354705810546875 12.81577491760255 -49.63645553588867
v 47.81470489501953 16.817773818969737 -50.0424575805664
v 38.21870422363281 4.539773941040049 -43.38445281982422
v 50.02870559692383 14.537775039672862 -50.75045394897461
v 15.830702781677246 7.077774047851573 -46.14845275878906
v 21.938701629638672 0.9617737531662104 -52.56645584106445
v 13.32070255279541 5.463773727417005 -54.02645492553711
v 15.7547025680542 8.169774055480968 -46.724456787109375
v 51.190704345703125 10.281774520874036 -59.650455474853516
v 26.982704162597656 16.369773864746104 -45.536453247070305
v 52.690704345703125 11.61777496337892 -60.288455963134766
v 65.8987045288086 11.023774147033704 -55.870452880859375
v 65.8987045288086 11.023774147033704 -55.870452880859375
v 27.26470184326172 12.563774108886733 -60.09245300292969
v 27.26470184326172 12.563774108886733 -60.09245300292969
v 44.35670471191406 3.6517739295959593 -53.262454986572266
v 46.302703857421875 17.751773834228526 -47.99245452880859
v 13.1947021484375 6.655773639678967 -53.89445495605469
v 53.5487060546875 19.643774032592788 -59.65645599365234
v 47.194705963134766 6.425773620605481 -55.32445526123047
v 51.91070556640625 14.05777454376222 -52.102455139160156
v 59.69670486450195 5.445773601531996 -59.858455657958984
v 18.78870391845703 15.217774391174329 -52.22245407104492
v 15.752702713012695 2.7117738723755 -52.91845703125
v 39.17670440673828 12.119774818420419 -40.54645538330078
v 13.702702522277832 9.55177402496339 -51.236454010009766
v 30.898704528808594 3.613773822784434 -45.900455474853516
v 14.014702796936035 4.389773845672619 -53.836456298828125
v 60.39070510864258 10.493774414062512 -58.12645721435547
v 28.410701751708984 5.865773677825941 -58.66845703125
v 60.45270538330078 10.139774322509778 -58.518455505371094
v 26.498703002929688 13.543774604797376 -59.27045440673828
v 27.718704223632812 3.3997738361358762 -54.02245330810547
v 27.718704223632812 3.3997738361358762 -54.02245330810547
v 15.928703308105469 9.083774566650401 -49.05245590209961
v 15.928703308105469 9.083774566650401 -49.05245590209961
v 19.674701690673828 15.47577476501466 -52.80245590209961
v 28.962703704833984 14.021774291992196 -42.95245361328125
v 43.07070541381836 2.265773773193371 -51.32245635986328
v 24.42870330810547 15.387774467468274 -55.076454162597656
v 25.738704681396484 14.36177444458009 -58.69045639038086
v 25.738704681396484 14.36177444458009 -58.69045639038086
v 13.370702743530273 5.397773742675794 -54.0544548034668
v 15.416702270507812 9.557774543762218 -49.67045593261719
v 17.71870231628418 2.919773817062389 -50.34445571899414
v 17.420703887939453 2.4237737655639764 -51.41045379638672
v 17.420703887939453 2.4237737655639764 -51.41045379638672
v 47.8087043762207 9.687774658203137 -55.44245529174805
v 47.8087043762207 9.687774658203137 -55.44245529174805
v 27.696704864501953 3.2557737827301145 -54.63245391845703
v 54.36470413208008 10.219774246215831 -47.44045639038086
v 25.612701416015625 2.0137739181518675 -53.55245590209961
v 51.694705963134766 13.195775032043468 -50.82245635986328
v 14.878702163696289 3.3117740154266477 -53.59245300292969
v 15.110702514648438 2.987773895263684 -53.26045608520508
v 25.076702117919922 15.037775039672864 -55.27445602416992
v 25.076702117919922 15.037775039672864 -55.27445602416992
v 21.530702590942383 0.9417737126350518 -52.23445510864258
v 17.776702880859375 3.1977739334106556 -50.018455505371094
v 43.90670394897461 20.623773574829116 -57.58645629882812
v 54.20470428466797 8.711774826049815 -46.794456481933594
v 27.40070343017578 10.54577445983888 -59.878456115722656
v 44.67070388793945 20.797773361206065 -55.658454895019524
v 27.750701904296875 7.719773769378675 -59.78645324707031
v 13.100702285766602 7.491774082183849 -53.396453857421875
v 47.396705627441406 6.201773643493665 -55.258453369140625
v 31.062702178955078 8.133774757385263 -42.45245361328125
v 27.76470184326172 3.309773921966565 -55.00645446777344
v 16.69870376586914 5.5097737312317 -46.40845489501953
v 54.44870376586914 9.89177417755128 -47.3044548034668
v 15.85470199584961 6.659773826599131 -45.92445373535156
v 28.218704223632812 5.045773506164563 -57.542457580566406
v 48.21470642089844 16.525774002075206 -50.748455047607415
v 31.202701568603516 7.143774032592783 -42.88645553588867
v 17.570701599121094 2.259773731231701 -51.076454162597656
v 26.270702362060547 17.97577476501466 -48.744453430175774
v 47.168704986572266 6.307773590087903 -55.258453369140625
v 48.32670593261719 16.093772888183604 -50.46245574951171
v 50.8087043762207 3.0797739028930775 -49.70845413208008
v 59.3347053527832 1.925773739814771 -56.56845474243164
v 59.3347053527832 1.925773739814771 -56.56845474243164
v 27.83670425415039 15.147774696350108 -44.04645538330078
v 52.56470489501953 3.955773830413829 -48.306453704833984
v 31.118701934814453 4.247773647308359 -44.57245635986328
v 26.570701599121094 17.99777412414552 -48.15045547485351
v 25.570701599121094 16.69777297973634 -54.15245819091796
v 46.008705139160156 10.047774314880384 -59.1944580078125
v 17.690702438354492 2.617773771286022 -50.81845474243164
v 17.690702438354492 2.617773771286022 -50.81845474243164
v 43.07270431518555 2.267773866653454 -51.33445739746094
v 45.25670623779297 18.001773834228526 -46.13445281982421
v 60.46470642089844 9.539774894714368 -59.11045837402344
v 45.008705139160156 11.30177497863771 -61.262454986572266
v 42.8087043762207 16.209774017333995 -42.89245605468749
v 15.85670280456543 8.413774490356456 -47.77445602416992
v 29.20470428466797 2.187773942947399 -50.65845489501953
v 31.248703002929688 7.721774101257334 -42.5904541015625
v 26.218704223632812 11.601774215698256 -62.48645782470703
v 31.102703094482422 4.293773651123057 -44.52245330810547
v 45.2467041015625 10.571774482727065 -60.742454528808594
v 16.278701782226562 6.181773662567148 -45.814453125
v 29.54470443725586 12.12577438354493 -42.078453063964844
v 25.44870376586914 15.999773979187024 -54.620452880859375
v 29.976703643798828 10.68577480316163 -41.88845443725586
v 53.20870590209961 12.04177474975587 -48.406455993652344
v 42.72670364379883 18.781774520874038 -60.76245498657226
v 43.370704650878906 19.831773757934585 -59.87845611572265
v 44.47470474243164 20.803773880004897 -56.07845306396484
v 42.57670593261719 16.053773880004897 -62.06445312499999
v 43.376705169677734 19.95577430725099 -59.6884536743164
v 61.41270446777344 2.9657738208770863 -50.878456115722656
v 45.19870376586914 20.60777473449708 -54.16445541381835
v 48.354705810546875 16.237773895263683 -50.72845458984374
v 51.90470504760742 18.04377365112306 -63.32045745849609
v 48.30470657348633 4.659773826599133 -53.07245635986328
v 47.850704193115234 16.785774230957042 -50.08245468139648
v 38.24070358276367 9.005774497985849 -41.03045654296875
v 45.014705657958984 11.293774604797377 -61.258453369140625
v 13.9447021484375 9.651774406433116 -51.04645538330078
v 45.75070571899414 10.243774414062512 -59.792457580566406
v 47.2627067565918 7.457773685455335 -55.61445617675781
v 46.97670364379883 9.329774856567395 -56.958457946777344
v 25.590702056884766 17.01377296447755 -53.82045745849609
v 29.128704071044922 2.085773944854748 -51.39845657348633
v 47.19270324707031 6.489773750305188 -55.35645294189453
v 47.19270324707031 6.489773750305188 -55.35645294189453
v 47.306705474853516 6.757773876190198 -55.23845672607422
v 47.306705474853516 6.757773876190198 -55.23845672607422
v 19.972702026367188 15.495774269104016 -53.04845428466797
v 45.07670593261719 17.72377395629884 -45.454456329345696
v 47.052703857421875 6.2197737693786745 -55.188453674316406
v 27.276702880859375 2.7117738723755003 -53.512454986572266
v 39.07670211791992 3.09377384185792 -44.96845626831055
v 43.626705169677734 2.9357738494873162 -52.61045455932617
v 40.208702087402344 1.659773707389842 -47.396453857421875
v 40.216705322265625 1.7897737026214704 -46.84245300292969
v 59.81470489501953 7.565773963928236 -59.792457580566406
v 60.75070571899414 5.021773815155041 -50.52645492553711
v 60.75070571899414 5.021773815155041 -50.52645492553711
v 48.21470642089844 16.317773818969737 -50.3024559020996
f 1 2 3
f 4 1 3
f 3 5 4
f 6 4 5
f 5 7 6
f 7 8 9
f 7 9 10
f 7 10 11
f 7 11 6
f 11 12 6
f 13 12 11
f 12 13 14
f 15 14 13
f 12 14 16
f 17 18 12
f 19 12 18
f 12 16 17
f 12 19 4
f 20 19 21
f 18 21 19
f 1 20 22
f 1 19 20
f 22 23 1
f 24 23 25
f 24 1 23
f 24 26 27
f 24 25 26
f 28 29 30
f 28 24 29
f 27 29 24
f 24 28 2
f 2 28 31
f 32 31 28
f 28 33 32
f 32 34 35
f 32 36 34
f 32 37 36
f 32 33 37
f 35 38 32
f 7 32 38
f 7 39 32
f 40 552 539
f 32 39 31
f 3 31 39
f 28 30 510
f 28 510 33
f 7 38 8
f 5 39 7
f 4 6 12
f 5 3 39
f 19 1 4
f 31 3 2
f 2 1 24
f 41 42 43
f 44 43 42
f 45 43 44
f 46 41 43
f 43 47 46
f 47 48 46
f 48 49 46
f 49 50 46
f 50 51 46
f 51 50 52
f 52 50 53
f 52 53 54
f 55 54 53
f 53 49 55
f 529 460 55
f 482 529 55
f 49 471 482
f 49 482 55
f 55 438 490
f 438 55 460
f 56 509 57
f 509 56 523
f 58 59 60
f 59 58 61
f 59 61 62
f 59 62 63
f 63 64 65
f 59 63 65
f 48 59 65
f 518 492 65
f 519 518 65
f 48 65 492
f 66 60 59
f 67 66 59
f 66 67 68
f 47 67 59
f 68 69 70
f 68 71 69
f 71 67 72
f 68 67 71
f 73 74 75
f 76 74 73
f 77 74 76
f 78 54 79
f 74 54 78
f 78 75 74
f 80 54 81
f 79 54 80
f 82 562 83
f 562 74 84
f 84 83 562
f 74 77 84
f 74 562 51
f 553 511 65
f 57 509 553
f 57 553 65
f 64 57 65
f 65 488 519
f 488 65 511
f 55 583 508
f 85 55 508
f 85 508 499
f 55 85 86
f 490 583 55
f 86 81 55
f 54 55 81
f 74 52 54
f 51 52 74
f 49 53 50
f 492 507 48
f 48 507 471
f 49 48 471
f 47 59 48
f 67 47 43
f 46 51 41
f 42 41 478
f 87 72 67
f 67 45 87
f 67 43 45
f 469 535 88
f 500 559 89
f 442 500 89
f 472 469 88
f 89 472 88
f 472 89 559
f 90 89 88
f 88 91 90
f 90 91 92
f 93 90 92
f 92 94 93
f 94 95 96
f 94 96 93
f 93 97 98
f 93 99 97
f 93 100 99
f 93 96 100
f 98 101 93
f 98 102 101
f 101 102 90
f 103 102 104
f 105 104 98
f 102 98 104
f 102 455 593
f 455 106 504
f 102 106 455
f 102 103 106
f 501 102 593
f 487 102 501
f 596 107 516
f 107 596 497
f 107 497 108
f 109 470 453
f 109 453 516
f 109 516 107
f 109 107 110
f 57 64 110
f 56 57 110
f 63 110 64
f 110 63 522
f 110 522 109
f 522 458 109
f 111 110 107
f 112 111 107
f 113 112 114
f 107 115 114
f 107 114 112
f 112 113 116
f 116 117 112
f 118 119 120
f 118 117 119
f 118 112 117
f 118 121 122
f 118 120 121
f 118 123 112
f 123 118 94
f 91 123 94
f 124 123 91
f 123 124 111
f 112 123 111
f 111 124 110
f 88 110 124
f 107 108 115
f 470 109 458
f 125 520 504
f 504 106 125
f 98 126 105
f 98 127 126
f 98 97 127
f 128 94 129
f 118 122 129
f 118 129 94
f 94 128 95
f 90 93 101
f 92 91 94
f 91 88 124
f 90 102 89
f 81 86 89
f 102 81 89
f 81 102 487
f 89 86 442
f 463 110 533
f 535 565 88
f 565 533 110
f 88 565 110
f 110 463 523
f 110 523 56
f 130 131 132
f 132 133 130
f 133 134 130
f 134 135 130
f 130 135 136
f 136 135 137
f 137 138 136
f 136 138 131
f 138 139 131
f 131 140 141
f 131 142 140
f 131 139 142
f 141 143 131
f 144 145 146
f 147 145 144
f 148 145 147
f 139 145 148
f 148 142 139
f 149 150 151
f 152 146 145
f 151 150 153
f 154 155 156
f 157 155 154
f 158 159 160
f 161 159 158
f 162 159 161
f 162 163 159
f 162 157 163
f 162 155 157
f 158 164 161
f 159 165 160
f 166 167 162
f 155 162 167
f 168 167 169
f 166 169 167
f 170 171 168
f 172 170 168
f 173 172 168
f 169 173 168
f 171 174 168
f 175 168 174
f 175 174 176
f 175 177 168
f 178 168 177
f 177 179 178
f 514 532 179
f 178 179 532
f 588 179 560
f 179 588 454
f 179 454 498
f 179 498 514
f 494 528 133
f 536 494 133
f 474 180 430
f 549 430 180
f 540 549 180
f 105 540 180
f 104 105 180
f 135 104 180
f 181 135 180
f 180 182 181
f 183 181 182
f 184 183 182
f 182 185 184
f 185 186 184
f 186 185 187
f 150 188 189
f 190 191 184
f 192 184 191
f 184 186 190
f 150 189 193
f 194 195 196
f 175 197 198
f 175 198 199
f 199 196 195
f 175 199 195
f 195 200 175
f 200 195 538
f 561 538 195
f 531 561 195
f 201 531 195
f 201 568 441
f 201 441 531
f 538 563 200
f 566 568 201
f 434 566 201
f 502 434 201
f 202 546 502
f 202 502 201
f 202 201 203
f 202 203 185
f 204 205 203
f 206 203 205
f 203 206 207
f 203 207 185
f 201 195 203
f 195 194 208
f 195 208 209
f 195 209 204
f 195 204 203
f 210 187 185
f 207 210 185
f 202 185 182
f 183 184 211
f 212 183 211
f 145 212 211
f 145 138 212
f 211 184 145
f 212 181 183
f 212 137 181
f 182 180 202
f 202 474 546
f 474 202 180
f 446 521 567
f 134 505 446
f 134 446 567
f 134 496 506
f 560 179 491
f 563 548 200
f 200 548 491
f 200 491 179
f 449 536 133
f 449 133 178
f 532 449 178
f 200 179 177
f 178 213 168
f 178 132 213
f 214 213 132
f 167 213 214
f 175 200 177
f 176 197 175
f 167 168 213
f 155 167 214
f 214 131 155
f 153 150 215
f 193 215 150
f 216 184 192
f 150 216 188
f 149 216 150
f 149 184 216
f 217 184 149
f 218 184 217
f 219 184 218
f 220 184 219
f 152 184 220
f 145 184 152
f 155 221 156
f 155 222 221
f 155 143 222
f 155 131 143
f 138 145 139
f 212 138 137
f 137 135 181
f 135 567 550
f 135 550 587
f 135 587 104
f 567 135 134
f 134 479 496
f 528 526 479
f 479 134 133
f 528 479 133
f 133 132 178
f 132 131 214
f 131 130 136
f 223 224 225
f 225 226 223
f 414 227 228
f 229 414 228
f 230 414 229
f 230 459 414
f 231 232 414
f 227 414 232
f 233 234 235
f 236 234 233
f 237 234 236
f 238 234 237
f 231 234 238
f 414 234 231
f 239 235 234
f 234 240 241
f 234 241 239
f 240 234 242
f 243 240 242
f 244 245 544
f 242 244 544
f 242 246 247
f 242 247 244
f 248 246 242
f 248 242 249
f 250 248 249
f 251 602 575
f 252 251 575
f 253 252 575
f 254 253 575
f 255 256 254
f 257 255 254
f 258 257 254
f 254 259 253
f 259 254 256
f 258 260 257
f 260 258 261
f 258 254 262
f 476 459 398
f 254 440 262
f 254 263 440
f 254 575 263
f 263 249 242
f 242 225 263
f 225 242 234
f 398 230 264
f 459 230 398
f 431 398 264
f 234 226 225
f 225 440 263
f 477 224 223
f 265 266 267
f 265 267 268
f 265 268 269
f 266 265 270
f 271 272 270
f 270 272 273
f 270 273 266
f 271 270 480
f 589 274 484
f 541 271 595
f 274 271 541
f 541 484 274
f 480 595 271
f 480 270 598
f 542 275 422
f 604 275 542
f 580 275 604
f 580 276 275
f 421 276 580
f 277 278 279
f 276 278 277
f 421 278 276
f 421 280 278
f 281 282 280
f 283 280 282
f 284 280 283
f 278 280 284
f 285 281 286
f 282 281 285
f 287 286 281
f 287 288 289
f 281 288 287
f 288 290 289
f 288 291 290
f 292 288 281
f 281 293 292
f 292 293 294
f 294 295 292
f 296 292 295
f 296 295 297
f 265 296 297
f 288 296 265
f 298 297 295
f 299 298 295
f 295 300 299
f 300 301 299
f 301 489 299
f 489 301 428
f 299 489 581
f 436 428 301
f 301 427 436
f 427 302 425
f 301 302 427
f 594 558 302
f 594 303 555
f 302 303 594
f 425 302 558
f 303 302 304
f 280 303 304
f 280 304 293
f 304 302 294
f 294 302 300
f 299 581 426
f 298 467 597
f 301 300 302
f 467 298 452
f 299 426 461
f 299 461 452
f 299 452 298
f 298 597 450
f 450 600 297
f 298 450 297
f 297 600 599
f 503 554 297
f 599 503 297
f 270 297 554
f 300 295 294
f 294 293 304
f 288 292 296
f 281 280 293
f 303 466 481
f 303 421 466
f 303 280 421
f 481 555 303
f 554 598 270
f 591 456 590
f 297 270 265
f 265 269 305
f 265 305 306
f 265 306 291
f 265 291 288
f 307 308 309
f 310 309 308
f 308 311 310
f 582 311 564
f 557 311 582
f 310 311 557
f 557 416 310
f 435 310 416
f 573 310 435
f 312 310 573
f 312 313 310
f 313 312 314
f 312 571 574
f 312 570 571
f 574 314 312
f 315 574 524
f 314 574 315
f 572 315 524
f 392 316 447
f 317 512 586
f 317 586 551
f 318 317 551
f 319 311 320
f 307 321 322
f 322 323 307
f 324 325 326
f 327 325 324
f 321 325 327
f 307 325 321
f 328 325 307
f 307 329 328
f 329 330 328
f 315 328 330
f 419 315 417
f 328 315 419
f 331 419 444
f 328 419 331
f 420 331 445
f 330 329 578
f 330 578 313
f 331 325 328
f 325 394 468
f 394 325 331
f 332 447 316
f 325 468 326
f 447 332 326
f 447 326 468
f 577 423 394
f 437 577 394
f 537 437 394
f 331 420 537
f 331 537 394
f 315 572 527
f 315 527 576
f 315 576 418
f 330 314 315
f 313 314 330
f 312 573 570
f 318 551 584
f 318 584 564
f 333 318 564
f 334 333 564
f 335 334 564
f 336 335 564
f 319 336 564
f 311 319 564
f 337 320 311
f 338 337 311
f 308 338 311
f 310 313 309
f 307 309 483
f 339 307 323
f 308 340 338
f 308 341 340
f 308 339 341
f 308 307 339
f 342 343 344
f 344 345 342
f 345 415 342
f 345 403 415
f 342 415 385
f 384 342 385
f 473 342 384
f 475 342 473
f 346 342 475
f 475 375 346
f 439 346 375
f 347 346 376
f 439 376 346
f 346 347 343
f 347 348 343
f 343 228 227
f 343 348 228
f 227 556 343
f 348 349 495
f 495 228 348
f 264 493 349
f 495 349 493
f 350 411 412
f 413 350 412
f 486 350 413
f 407 408 351
f 351 545 352
f 545 351 408
f 352 545 405
f 402 353 406
f 352 405 406
f 352 406 353
f 353 354 352
f 354 355 352
f 356 352 355
f 355 357 356
f 358 356 357
f 358 357 396
f 433 396 357
f 359 358 579
f 396 451 579
f 396 579 358
f 345 358 359
f 579 462 359
f 360 359 585
f 585 457 592
f 457 585 359
f 530 457 359
f 462 530 359
f 585 443 360
f 361 485 465
f 393 517 388
f 485 388 517
f 517 465 485
f 379 361 380
f 485 361 379
f 362 380 361
f 363 362 361
f 361 364 363
f 363 364 365
f 401 363 400
f 365 400 363
f 400 365 432
f 432 365 253
f 366 253 365
f 366 252 253
f 367 251 252
f 252 366 367
f 251 367 603
f 367 464 603
f 367 404 464
f 367 353 404
f 366 368 367
f 367 368 354
f 368 369 354
f 389 547 368
f 368 387 369
f 387 368 547
f 387 543 369
f 390 370 525
f 534 525 370
f 515 534 370
f 364 515 370
f 364 370 366
f 390 389 368
f 370 390 368
f 368 366 370
f 365 364 366
f 569 391 364
f 361 569 364
f 515 364 391
f 362 363 371
f 372 362 371
f 349 372 371
f 349 347 372
f 371 363 349
f 380 362 429
f 372 429 362
f 383 372 382
f 429 372 383
f 361 465 569
f 386 443 513
f 448 360 386
f 360 448 377
f 443 386 360
f 359 360 378
f 359 378 410
f 433 357 395
f 543 395 357
f 369 543 357
f 345 356 358
f 369 357 355
f 356 373 352
f 356 344 373
f 374 373 344
f 351 373 374
f 354 369 355
f 367 354 353
f 402 404 353
f 351 352 373
f 351 409 407
f 351 374 409
f 424 409 374
f 374 486 424
f 374 350 486
f 374 343 350
f 399 363 401
f 397 363 399
f 431 363 397
f 264 363 431
f 349 363 264
f 350 601 411
f 601 343 556
f 350 343 601
f 347 349 348
f 372 381 382
f 372 376 381
f 347 376 372
f 359 410 403
f 359 403 345
f 345 344 356
f 344 343 374
f 343 342 346
